<?xml version="1.0" encoding="utf-8"?>
<!-- Generator: Adobe Illustrator 19.2.0, SVG Export Plug-In . SVG Version: 6.00 Build 0)  -->
<svg version="1.1" id="Layer_1" xmlns="http://www.w3.org/2000/svg" xmlns:xlink="http://www.w3.org/1999/xlink" x="0px" y="0px"
	 width="1600" height="900" style="enable-background:new 0 0 1600 900;" xml:space="preserve">
<linearGradient id="SVGID_1_" gradientUnits="userSpaceOnUse" x1="800" y1="5" x2="800" y2="378.1751" gradientTransform="matrix(-1 0 0 1 1600 0)">
	<stop  offset="0" style="stop-color:#46325E"/>
	<stop  offset="1" style="stop-color:#FFC2E6"/>
</linearGradient>
<polygon style="fill:url(#SVGID_1_);" points="0,900 1600,900 1600,0 0,0 "/>
<path style="fill:#CE9BC7;" d="M225,349.5c0,0-19.5-20.5-23.5-26.5s-24-8-31.5-13.5S128,291,119,284s-18-21.5-34.5-26S41,243,36,243
	s-20.5-13-25.5-17.5l-10.5-6v130H225z"/>
<path style="fill:#BC7DB0;" d="M1153,367.1c0,0-28-20.8-35.5-27.5s-15-14.1-18.5-18.1s-3.5-11.4-7-9.4c-3.5,2-11.5,5.4-17.5,5.4
	s-9,0-14-2.7s-11-4.7-14,0.7c0,0-0.5,0.7-9.5,2.7c-9,2-10.5,6-15.5,6s-13-2-15-2.7c-2-0.7-6.5-1.3-15.5,2c-9,3.3-20-0.7-26-4.7
	s-14.5-14.7-25.5-16.7s-21-5.4-24.5-6.7s-21.5-4-33.5-0.7c-12,3.3-35.5,14.7-39.5,16.1s-18.5,8-26.5,8.7c-8,0.7-33,0.7-42,0
	c-9-0.7-23-4.7-28.5-4.7s-12,4-17.5,0.7c-5.5-3.3-4-10.7-12-10.7s-13,9.4-21,9.4s-10-7.4-16-7.4s-17.5,5.4-20,5.4s-11-1.3-12.5-4
	s-3.5,3.3-6.5,0.7s-7,2-12.5,0c-5.5-2,1-5.4-16-2.7s-26.5,1.3-29,0.7c-2.5-0.7-14.5-3.3-19-4.7s-64.5-16.7-69.5-16.7s-28-4.7-35-4.7
	s-33.5-17.4-41-18.8s-29-6.7-32.5-11.4s-25.5-4-30.5-4s-23,6-29.5,9.4c-6.5,3.3-25,12.1-33,14.1c-8,2-25,18.1-32,20.1
	c-7,2-26.5,17.4-34.5,17.4s-8,7.4-19,8.7s-15,4-24,7.4c-9,3.3-25,9.4-32.5,9.4s3-6.7-28.5,1.3s-25,12.7-38,16.1
	c-13,3.3-10.5,31.5-16.5,34.2s318,53.6,367,48.9c49-4.7,221.5,12.1,244.5,8.7c23-3.3,239-21.4,254-24.1s194-22.1,204.5-24.1
	C1147.5,391.9,1211.5,396.6,1153,367.1z"/>
<path style="fill:#CE9BC7;" d="M1600,357.7v-45.3c0,0-7.5-2.8-14.5-2.8s-14-1.5-17.5,0s-9.5,4-14.5,4s-11,0-18.5,0s-14.5-2.3-18-4.7
	c-3.5-2.3-16.5-5.3-22-2.3s-9.5,9-15.5,6.5s-6.5-8.5-14.5-7.8c-8,0.8-17,3.1-22-0.1s-16.5-2.2-19-4.7s-10.5-3-13.5-4.5
	s-10.5-7.5-12-7.5s-11,10-24,12S1351,304,1349,304s-25,3-29.5,1.5c0,0-19,1.5-18.5,8c0.6,7.7,19.4,42.1,35.5,42.5
	c20.5,0.5,101.1-0.2,119,2C1508,364.5,1600,357.7,1600,357.7z"/>
<path style="fill:#915C83;" d="M0,319c0,0,16.5,11.4,24,9.4s17.5,2.6,21.5,3.6s7.3,8,21.4,9.5s68.6,3.5,78.6,3s24,0.2,35.5,0.1
	s15.5-0.9,24,0c8.5,0.9,25.5,8.4,33,11.9s17,6,29.5,11.5s23,8,32,12s18.5,12.5,24.5,15.5s18.5,10.5,22,14s10,14,17,18s22,7.5,20,13
	s-25,13-26.5,13s-81.5,9.7-91.5,4.6S157,440,133,431.5S41,418,26,418s-26,1-26,1V319z"/>
<path style="fill:#A56A99;" d="M1487,359.5c-1.8-1-35-21-38-22s-11,2-18,0s-22.5-10-32.5-10s-18.5,0-21,0s-7.5-8-19-2.5
	s-14.5-6-20.5-8s-18.5-19-22-20.5s-9.5-8.5-15.5-5.5s-21.5-1.5-32.5-0.7s-15.8,0.6-19-0.1s-5.2,2.1-8,2.3s-8.2,4.8-10.8,4.8
	s-19.5,1-20.8,0.5s-1.2-1.8-5.5,0s-15,1.2-18.2,0.2s-5.2-3.5-7.5-4.2s-5.5,6.2-13.2,6.2s-13.2-4.8-18.2-4.8s-7.8,2-11.5,2.5
	s-5.8,8-10.8,8.2s-4.8,2.2-10.2,4.2S1101,316,1098,316s-7.8,5.2-24.5,5.2s-16-2.5-23.8-1.8s-12.2,1.2-13,2.5s-3.2,3.1-8.2,2.8
	s-16.5-0.7-19.8,0s-5.5,2.7-10.2,2.5s-11-0.5-13,1.2s-3,3.2-8.2,3.2s-7.2,5.2-10,6s-6.2,0.5-8.2,1.5s-8.2,3.5-10.5,3.2
	s-12.5,5-17.5,5.2s-5.8,3.2-9.2,3.8s-1.8,2.8-6.5,3s-12.5-3.1-15.2-4.8s-9.8-3.7-11.5-3.2s-6.8,0.9-10,3.2s-12.2,3.5-14.5,4.3
	s-7,3.5-9.2,3.5s-4.2,2.2-7.2,2s-9.2,1.5-12,1.5s-9.2-1.8-11.2-1.8s-5.2-3-11.2-3s-8.2-3-15-2s-10.5,5-15.5,5s-7.2,3.8-12.2,1.8
	s-13-1.8-14.8-2.8s-4.8-3-9.2-4.5s-5.2-6.5-10.5-7.5s-17.8-2-21.8-2s-11.5,2.2-15.5,2.2s-12,3.4-17,3.2s-9.5,0.5-12.5,2.8
	s-17.5,7.2-22.2,7.2S636,366,633,366.2s-13.2,0.8-18,0s-18.2-1.2-22.2-1.5s-12.5-2.2-18-0.8s-14,3.8-18.2,4.5s-28.2,7.8-32.8,8.8
	s-10.5,2.5-18.2,3.2s-18.5,0-23,3.5s-18.8,9-23,11s-23.5,9-30.8,10.5s-23.2,4.2-28.8,5.8s-12.5,1.8-18.8,3s-5.5-0.2-19.5,3.8
	s-32.1,10.3-39.4,11c-7.3,0.7-4.7,4.7,0,10.7c4.7,6,24,10,36,10.3s280.7,1,301.3,3.7c20.7,2.7,176.7,2.7,217.3,2.7s245.3,4,268,0
	s175.3-8.7,198-11.3s100,4.7,134.7-8.7c34.7-13.3,60-14.7,67.3-16.7s15.3-20,6.7-21.3c-8.7-1.3-33.3-31.3-44-32.7
	C1497,364.3,1492.2,362.4,1487,359.5z"/>
<path style="fill:#845275;" d="M1600,341c0,0-5.7,1-8.3,2c-2.7,1-5-0.7-10,0s-14.3,7.1-19.7,6.7s-16-3.1-20.3-5.7
	c-4.3-2.7-9-1.7-16.3-3c-7.3-1.3-22-7.3-25.7-9.3c-3.7-2-8.7-1.7-13-2.7c-4.3-1-10-1-15.7,2.7c-5.7,3.7-15.7,10-21.7,12
	s-15.7,6.8-23,6.1c-7.3-0.7-10.3-4.7-25.3,3.6c-15,8.3-26.7,10.7-30.3,14.3c-3.7,3.7-14.7,9.3-20.7,8.3s-17,1.2-22,0.1
	s-18-3.8-23.7-1.4c-5.7,2.3-10.7,4.7-12,4.7c-1.3,0-8-5.3-14.7-5.7c-6.7-0.3-17,1-19.7,1s-13,0.3-18.7,0.3c-5.7,0-13,0-16.7-2
	c-3.7-2-16.3-1.3-20.3-0.7c-4,0.7-11.7,5.3-14,7c-2.3,1.7-19,4-25.7,4c-6.7,0-11.7-4-16.7,0s-18,9.3-20.7,10
	c-2.7,0.7-7.3,2.3-11.7,3.7c0,0-34.7-4.7-51-4c-16.3,0.7-21.7-4.3-31-3c-9.3,1.3-14.3,6-19.7,7s-16.7,6.7-23.3,6.7
	c-6.7,0-20.7,3-26.3,3.3c-5.7,0.3-80.3,9.3-89.7,11.7c-9.3,2.3-8.3,4.3-29,8c-20.7,3.7-31.7,3.3-40.3,3c-8.7-0.3-38-0.9-46,0.2
	c-8,1.1-26.7,6.8-40,5.1c-13.3-1.7-34.7-3.3-45-4.3c-10.3-1-50.3,2.3-56.7,2.3c-6.3,0-17.7,1.9-22.7,2.3c-5,0.4-29-4.3-32-6
	c-3-1.7-10.7-0.7-17.7,0.7s-36.3,5.6-41.3,5.3c-5-0.3-26.3,6-35,5s-21.3-1-23.3-4.3s-9.7-6-18.3-5.3c-8.7,0.7-24.7-2.3-29.7-5.3
	s-13-7.7-16.7-10c-3.7-2.3-1.7-5.3-11-6.3s-9.3-3.3-17.3-3.3s-14,3.3-17.7,6.7c-3.7,3.3-8.3,6.7-14.3,13.3c-6,6.7-4.7,7.7-11,8.3
	c-6.3,0.7-70.7,11-82,11c-11.3,0-23.3,8.7-43.3,9.3c-20,0.7-42.7,15.3-38.7,20c4,4.7,20.7,24,31.3,24.7s160,23.3,200,22.7
	c40-0.7,208.7,40.7,244.7,38.7s162,15.3,218.7,13.3c56.7-2,352.7-0.3,394,0.2c41.3,0.5,244-8.8,264.7-8.8s103,2.7,103,2.7V341z"/>
<path style="fill:#543A4B;" d="M1317,460c0,0-28-16.5-35-20s-9.5-8-20.5-8s-24,1-30,0s-18.5-16-28-16.5s-15,7.5-28,6s-17.5,3-32,8
	s-27,11.5-44.5,13s-14-5.5-30.5,1.5s-19.5,13.5-27.5,16s-25.5,10.5-35,11s-26,8-39,13.5s-21.5,10-31,10s-18,2.5-26.5,4.5
	s-17,6-36,11s-38.5,19-47,22s-26.5,16-40,17.5s-30,7.5-46,8.5s-30,7.5-32.5,12.5s62.5,26.5,70,26.5s80.5,5,96,5s43.5,2,58,0
	s173.5-5,189-14s61,1,90-14s57-24,88.5-33.5s50-19.5,50-24.5s-18-47-22.5-49S1321.1,462.4,1317,460z"/>
<path style="fill:#724464;" d="M345,542.6c0,0-26.7-31.8-30.5-43.1c-3.8-11.4-21.5-27.7-23.5-29.1c-2-1.4-16,7.8-21,0
	s-16.5-14.2-23-14.2s-11-3.6-13-7.8s-11.5-14.2-16.5-17c-5-2.8-11,5.7-16.5,3.6s-12,0.2-15-4.1c-3-4.4-10.5-12.9-13.5-15
	s-8.4-6.4-18-11.9c-9.6-5.5-13.5-15-21.5-17.2s-19,6.4-25,0S82,369.4,78.5,369c-3.5-0.3-24-4.6-31-6.7S33,354.5,27,352.4
	s-27-7.8-27-7.8v180.6c0,0,113.5,17.2,125.5,17.4s112.5,13,131,14.4s101,4.3,101,4.3L345,542.6z"/>
<path style="fill:#4C3448;" d="M18.8,593.5c4.9-3.1,55.3-38.5,70-48.5s19-9.5,29.5-15.5s16.3-10.5,29-10.5s38.4-7,48.4-9
	s17.9-3.5,26.9-3s18.4-0.7,26.3-0.1c7.9,0.6,32.1-2.9,39.5-7.9c7.4-5,25.3-10,35.8-10.5c10.5-0.5,17.9-3.5,22.1-3.5
	c4.2,0,11.6,5,16.3,5s14.2,1.5,20,1c5.8-0.5,18.4-5,26.9-6s9.7-5,13.4-5s14.2,1.8,16.6,1.8s10,0.2,11.1-0.5c1.1-0.8,9-5.8,11.1-6
	c2.1-0.2,18.2,1.5,21.1,0c2.9-1.5,6.1-4,8.7-3.2c2.6,0.8,19.7,9.8,23.4,12c3.7,2.2,20,9,21.1,10.5c1.1,1.5,12.6,7.2,17.4,8
	s10,2.2,14.7,3.5s5.3,4.5,10.3,7c5,2.5,10.8,3.2,16.1,4s10.5,2.5,13.4,4.2s9.5,3.5,12.1,5.8s5.3,2.4,8.2,5.7s3.2,3.6,5.8,5.1
	c2.6,1.5,17.9,12.8,21.6,13.8c3.7,1,7.1,6.5,12.4,9.8c5.3,3.2,18.7,16.2,23.4,19.2s23.7,20,30.5,26c6.8,6-11.1,15-12.1,17.5
	c-1.1,2.5-125.8,29.5-136.9,30.5s-80,1-126.4-7s-217.5-21-234.8-22.5S76.7,599.5,58.3,600.5S9.3,599.6,18.8,593.5z"/>
<path style="fill:#3F283F;" d="M652.7,567.5c2.5,0,26.4-0.8,44.9-8.1c18.4-7.3,41.8-11,46.7-11.6c4.9-0.6,12.3,0,23.4,5.5
	c11.1,5.5,44.3,19.7,60.9,24.6c16.6,4.9,28.9,14.8,44.9,16.6c16,1.8,26.4,2.5,32,6.8c5.5,4.3,7.4,8.6,13.5,14.1
	c6.1,5.5,12.3,14.8,18.4,20.9c6.1,6.1,21.5,30,30.7,35.6c9.2,5.6-9.8,17.9-19.7,17.3c-9.8-0.6-28.9-7.4-81.8-14.1
	c-52.9-6.8-127.3-23.4-143.3-33.8c-16-10.5-70.7-30.1-80.6-34.4c-9.8-4.3-34.4-22.1-24.6-27.7C628.1,573.6,652.7,567.5,652.7,567.5z
	"/>
<path style="fill:#312338;" d="M1600,398.9c0,0-18,4-20.5,4s-19.5,4.5-24.5,5s-14.5,3.5-21,0s-11-5-14.5-1s-10.5,1-12.2,1.5
	s-4.5,4.2-7.2,4.8s-17.5,2.2-19.8,3.2s-13.2,7.5-17.2,9.5s-18.5,7.8-21.8,10.8s-6,0-8,0s-7.5-5.5-11.5-5.5s-4,2.2-8.8,3.8
	s-11.2,3.7-14,3.1c-2.8-0.6-6.2,1.7-7.5,1.7s-10.2-3-12.2-3.2s-14,4-16,4.8s-4.8,3-7.8,3s-8,4-11.2,5s-9.2,3.8-12.2,3.8
	s-9.5,6.5-12.2,6.5s-15.8-2-23.2,0s-10.8,4.2-16,4.2s-14.2-0.5-19,0s-12.2-3.5-20.5-3.5s-15.2-0.7-21.2,3.5
	c-6,4.2-11.5,10-12.5,10.5s-4.2-2-6.8,0s-5-3-6.2-2.5s-12,8.5-15.2,10s-12,4.8-15,5.5s-10.8,4.2-14.2,7s-14.2,0.2-19.2,1.2
	s-8.5,6.8-13.5,10.2s-7.8,7.5-12.8,7.8s-12.5,5.2-14.8,5.8s-9.5,3.5-17.2,3.5s-10.2-1.8-14,2.2s-13,9-16.2,9.2s-6,1.5-9,4.2
	s-13,10-17.5,12s-21.8,13.2-26.5,14s-29.2,12.5-32.8,14.5s-17,12-24.2,12s-26,9-30.5,9s-15,5-18.5,5s-35,7.5-43.5,11
	s-24.5,17.5-29,17.5s-50,36.5-58.5,39s-42,24.5-47.5,27.5S752,900,752,900h848V398.9z"/>
<path style="fill:#1C1221;" d="M0,900V499c0,0,25,3.5,29.5,3.5s12,1.5,15,4s6.5,4,10,5s10.5,1.5,12,4.5s5,5.5,9,7s10.5,4,13,8.5
	s7,4.5,12.5,4s10.5-1.5,19,0.5s15,4,21,5.5s7,5.5,10,6s8.5,4,11.5,6.5s10,4,17,7.5s10,7.5,13,9.5s4.5,2.5,13,3s10,4,13.5,4.5
	s9,3.5,15,3.5s10,1.5,14,1.5s11-5.5,16-8s10.5-6,16-9.5s13.5-10.5,20-12s15.5-5,24-5.5s13-1.5,21,0.5s16.5,5,22,8s15.5,8.5,18.5,10
	s10.5,9,15,11s8,6.5,15.5,7.5s10.2,3.5,12.8,4.8s8.2,5,11,5.2s6.8,1,9.5,1s7.2-1,12.8-0.2s11.8,4.5,15.5,5.5s5.5,4.5,8,4.5
	s12-1.2,15-1s8.8,3.5,13.5,4.5s10.2,3.5,16.2,3.8s11,0.5,17-0.5s10.5-2,13.8-4.2s11.2-7.5,15-9.2s9.8-7.5,13-8.8s9-1.5,14.5-5.5
	s10-4.5,13.5-6.2s8.8-3.5,12.5-4.8S643,572,649,566s16-8,18.5-9.8s6.5-1.2,8.8-0.8s5.5,2.8,8,3.8s3.8,3.8,5.8,3.8s1.8,2.5,3,3.2
	s4.2,4.5,9,5s18.2,4.2,19.5,5.2s9.2,5.5,10.8,6.8s8.5,3,12,4.8s7,3.8,11.2,4.5s7.2,1.8,9.2,3.2s4.8,2.2,6.8,3.2s3.5,3,4.8,3.8
	s5.2,3,6.8,4s5.2,2.5,11.5,5s5.2,5.8,10.2,7s9,5.2,11,6s5,3.2,8.2,4.2s7,3.2,9.8,3.5s7-1.5,9.5-2s4.2-2.8,7.2-2.8s9.2-1,10.8-2.2
	s6-0.5,10-2.5s10.2-6,15.8-6s18-2.2,23.5-0.8s10,1.5,14.5,4.5s16,9.5,21,11.5s3.8,3.8,10.5,3.8s7.5,3,12,5.2s7,5.2,14.8,5.2
	s6,1.2,12.8-1.5s15.2-5.5,19.5-5.2s8.5,1.8,11.5,0.5s2.5-5.5,10-6s10.5-0.2,16.5-2.8s12-8.2,17.8-10s10.2-4.2,14.2-5.5
	s9.2-3.8,16.5-3.2s17.5,0.8,21.2,2s8.5,2.2,12,3.2s2,2.5,6,2.8s7.8-0.2,12.5,0.2s9.5-1.2,13.8,0.8s8.2,3,10,5.5s2.2,5.8,4.2,6
	s6.5-0.2,14.2,0s16,7.8,18,9.2s9.5,7.5,15.5,11.8s12.2,12.2,16.2,16.2s10.8,9,14.8,12.5s12.8,13,16.8,16.5s16,14,18.5,15.5
	s13.2,9,15.5,10.5s24.4,16.2,38.4,18.8c14,2.7,35.3,19.3,47.3,27.3s32.7,18.7,43.3,25.3c10.7,6.7,11.3,16.7,22.7,20.7
	s24.7,16,35.3,24c10.7,8,22.7,22,30,27.3c7.3,5.3,20,14,27.3,18.7c7.3,4.7,14.7,12.3,14.7,12.3H0z"/>
<path style="fill:#0E0811;" d="M1266,900c0,0-83-41-104-48s-68-22-77-23s-37-9-51-12s-34-9-50-14s-15-8-35-9s-46,7-61,9s-20,7-33,2
	s-28-7.2-51-11.1c-23-3.9-51-3.9-58-7.9s-23-8-31-8s-29-8-38-12s-46.7-10-54.9-13c-8.1-3-48.1-37-63.1-41s-45-24-64-31
	s-39-18.6-48-26c-9-7.5-30-33-37-34s-28-16.2-38-18.1c-10-1.9-72,0.9-78,0c-6-0.9-30,7.5-45-0.7c-15-8.2-43-16.2-47-19.2
	s-29-37-33-40s-43-25-48-29s-29-10-36-15s-24-11-35-14s-23.9-3.3-35-7c-15-5-15-3.5-15-3.5V900H1266z"/>
<path style="fill:#060307;" d="M479,841c0,0-65.6-28-95.8-49S315,755,292,736s-80-40-119-49s-65-3-94-18s-57-35-64-39s-15,1-15,1
	v269h633c0,0-52-24-68-25s-20,0-49-13S490.9,846.2,479,841z"/>
<g>
	<path d="M1598.6,521.2c-1,0.2-0.3-0.7-0.2-1.7c0.2-1-0.2-2.9,0.4-3.8c0.6-0.9-0.8-1.3-1.8-1.3c-1,0-0.6-3.3-0.8-3.9
		c-0.2-0.6-2.2,0.4-2.7,0.6c-0.5,0.2,0-3-1.5-3.3c-1.5-0.3-0.8,2.6-1.5,3.7c-0.6,1.1-4.2-2.1-5.4-1.6c-1.3,0.5,3.9,3.5,6.2,5.5
		c2.3,2.1-0.5,2.9-1.3,3.5c-0.8,0.6-4.1-0.5-6-0.5c-1.9,0-0.1,1.9-1.4,1.6c-1.3-0.3-3.4,1-4,1.4c-0.6,0.4-3.3,0.6-3.3,1.7
		c0,1.2,5.2,2,5.6,2.5c0.3,0.5-3.2,0.9-3.4,1.2c-0.2,0.3,4.1,1.7,4.4,2.1c0.3,0.4-1.4-0.1-1.4,1.1s2.6,0,4.3,1.2
		c1.6,1.2-2.5,0.7-3.5,1.2c-0.9,0.4,6.9-0.6,10.9,1.5c2.6,1.3,0,2.9-0.9,5c-0.5,1.1-1.8,1.3-2.8,1.4c-1,0.2-5.7,2-8.8-1.1
		c-3.2-3.1-3.3-3.3-3.8-5.9c-0.5-2.6-4.1,0.4-7.5-1c-3.4-1.3-1.7,2-0.7,3.9c1,1.9,6.8,3.6,4.2,3.7c-2.6,0.1,1.6,4-1.9,4.1
		c-3.6,0.1-1.2,1.5-4.6,2.8c-3.5,1.3-2.2,1.1-2.1,4.5c0.1,3.4,4.1-0.4,8.1,0c4,0.3,0,3.2-2.9,3.2c-2.8,0-5.9,2.8-6.3,5.7
		c-0.4,2.9-3.7-2.3-5.7-4.7c-2-2.4-5.2,0.2-8.5-1.3c-3.4-1.5,0,3.8-5.7,3.4c-5.7-0.3,0.7,1.7,0.1,5.6c-0.5,3.9,2.8,2.6,5.5,4.7
		c2.7,2.1-5,2.7-2.4,4.8c2.7,2.2,8.9-0.2,8.9,0.5c0,0.6,6.7-0.6,9.8,1.2c3.1,1.8,7.1-0.6,7.9,2c0.8,2.6-1.3,2.1-6.4,2.1
		s-1.2,2.8-6.5,3.5c-5.3,0.6-6,0.5-8.1-0.2c-2.1-0.7-1.7,2.7-4.1,1.9c-2.4-0.8-5,3.4-6,5.8c-1,2.4,7.6,2.4,13.7,4.7
		c6.1,2.3-2.2,2.9-8.2,2.1c-6-0.8-6.5-0.1-8.2,2.3c-1.7,2.4-6.8,1.9-11.2,5.2c-4.4,3.2,5.4,0.3,8.5,1.6c3,1.3-3.1,4.8,0.2,6.7
		c3.3,1.9,0.3,2.1,3.8,2.7c3.4,0.6,2,1.9,9.2,6.2c7.2,4.4,3.2,4.7,1.7,6.8c-1.5,2.1-10.4-4.5-15.6-5.7c-5.3-1.1-6.5-1.7-21-1.9
		c-14.5-0.1-7.7,2.8-17.9,8.5c-10.1,5.7,3.9-0.6,2.7,2c-1.2,2.6,6.4-1.1,13.5-1.8c7.2-0.7,13.1-0.9,10.3,1.2
		c-2.8,2.1,9.9,0.4,9.2,1.5c-0.6,1.1,8.9,1,7,2.9c-1.9,2-0.3,2.5-3.8,4.8c-3.5,2.3,10.2,1.2,18.1-1.7c8-2.9,6.2-2.5,7.9-0.4
		c1.6,2.1-3.4,1.7-9.1,3.3c-5.7,1.6-3.6,5.3-5.6,5.6c-2,0.3-6.9-3-14.2-1.1c-7.3,2-5.8-1.6-18.5-1.4c-12.7,0.2-9.2,1.9-16.7,6.2
		c-7.4,4.3-2.1,4.4-2.8,6.4c-0.7,2,7-3.2,9-1.1c1.9,2.1,6.2,0.8,10.6-2.7c4.5-3.4,5.7-1,4.8,2.4c-0.9,3.4,6.8,0.7,6,3.3
		c-0.7,2.6,2.4,0.3,3.1,3.4c0.6,3.1,2.7,0.1,7.3-0.6c4.6-0.7,0,1.1,1.2,3.3c1.2,2.3,1.8,6.2-2.5,7.3c-4.3,1.2-9-2.4-13.6-2.3
		c-4.6,0-5.7,3.4-11.8,3.8c-6.1,0.4-6.9,1.1-9.3,4.3c-2.4,3.3,1.1,2.7,6.3,1.2c5.1-1.5,7.2-0.4,6.2,1.7c-0.9,2.1,0.1,2,3,2.8
		c2.9,0.8,1.4,2.7,1.6,6.5c0.2,3.7-2.7,2.2-6.9,1.3c-4.2-0.9-3.7,2.1-6.9,2.3c-3.2,0.2-0.2,3-6.2,3.6c-1.7,0.2-2.5,0.5-3,1
		c-0.5-0.3-1.4-0.7-2.1-0.6c-0.7,0.2,0.1-1.2-1-1.3s-2.6,0.2-3-0.2c-0.4-0.5-2.1-0.9-0.9-2.1c1.2-1.2,3.6-2.7,2.9-3.1
		c-0.7-0.4-2.1,1.1-2.5,0.4c-0.4-0.7-0.1-2.1-0.9-1.9c-0.8,0.1-0.8,1.9-1,1.7c-0.3-0.2-1.7-1.1-1.8-0.7c-0.1,0.4-0.6,0.5-0.6,0.8
		c0,0.3,1.2,1.8,0.6,1.8c-0.5,0-1.6,0.3-1.2,0.9c0.4,0.6,0.8,1.7,0.9,2.4c0.1,0.6,0.2,1.1-0.3,0.9c-0.5-0.2-1.7-1.6-2.9-1.8
		c-1.2-0.2-2.2-1.1-2.8-0.4c-0.6,0.6-1,0.8-1.3,1.3c-0.3,0.5-1,1-1,1.5s-0.6,2,0,2.6c0.6,0.6,2.6,2.8,3.3,3.4
		c0.7,0.6,3.8,2.3,4.2,2.4c0,0,0.1,0,0.1,0c-0.2,0.7-0.6,1.6-1.6,2.7c-1.9,2.1,1.2,0.9,3.5,0.5c0,1.5,0,3.2,0,3.2s-1.8,1.1-2.3,0.4
		c-0.5-0.7-1.8-2.6-2.1-2.7c-0.4-0.1-1.1-0.2-1.9-0.2s0.4,0.9-0.7,0.8c-1.1-0.1-3.8-0.5-4.9-1c-1.1-0.5-0.2,0.5,0,0.9
		c0.2,0.4,1.8,1.7,0.6,1.6c-1.1-0.1-1.6-1.9-2.9-2.1c-1.3-0.2-3.6-0.3-2.4,0.2c1.2,0.5,5.1,2.7,3.4,2.4c-1.8-0.3-5.6-1.5-4.8-0.4
		c0.8,1.1,2.3,1.5,1,1.8c-1.3,0.3-3.7,1.4-2.3,2.2c1.4,0.9,4,0.5,5.1,0.8c1.1,0.3,4.8,1,3.1,1.4c-1.8,0.4-4.8,0.3-4.8,1.3
		c0,1,1.4,1.9,0.3,2.4c-1.1,0.5-0.6,1.8-1.8,1.6c-1.2-0.1-7-1.6-6.1-0.5c0.9,1,2.4,3.6,3,3.7c0.6,0.1-1.3,1.5-2.4,2.8
		c-1.1,1.3,0.4,2.7,1.4,1.7c1.1-1,3.3-1.7,5.6-1.2c2.3,0.5,6.5,1.9,7.2,1.9c0.7,0.1,2.1,0.3,1.5,0.9s-0.5,1.1-3.2,0.5
		c-2.6-0.6-4.1-0.7-5.5-0.3c-1.4,0.3-3,2.1-4.4,1.6c-1.4-0.5-3.1-0.3-4.1-1.1c-1.1-0.8-2.7-1.1-2.7-1.1s-2.4-1.6-2.9-1.9
		c-0.5-0.3-0.5,0.2-0.6,0.5s0.4,1.5,0.4,1.5s-3.6-0.2-3.5,0.1c0.1,0.3,1.6,1.6,1.9,1.6c0.3,0-1.4,0.7,1,0.9c2.4,0.2,6.6,0.7,4.7,1.1
		c-1.9,0.4-3.4,0.7-2.7,1.3c0.7,0.5,1.9,2.1,3.2,1.6c1.3-0.5,2.7-1.7,3.9-1c0,0-0.9,0.7,0.9,1.6c1.9,0.9,3,0.7,4.2,1.4
		c1.2,0.7-0.3,1.6-1.4,2.1c-1.2,0.4-0.2,2.8-2.1,2.1c-1.9-0.7-3.2-2-3-1.6c0.1,0.4,2.5,1.8,0.7,1.5c-1.8-0.3-3.6-3.2-3-1.9
		c0.5,1.3,1.2,3.1,0.4,2.3c-0.8-0.8-0.4,1.5-1.8,1.1c-1.5-0.4-3.3-2.2-5.2-3.3c-1.8-1.1-1.5-0.2-1.4,0.3c0.2,0.5,2.6,3.3,1.2,2.5
		c-1.3-0.8-3.4-1.7-2.9-0.8c0.5,0.9,0.8,1.4-0.1,1.9c-0.8,0.4-0.2,1.9,1,2.1c1.2,0.2,4,0.2,5.3,0.5c1.3,0.2,4,0.3,3.3,1.1
		s-1.3,1.8-2.6,2.1c-1.3,0.3-2.2,1.1-1.6,1.7c0.7,0.7,2,1.8,1.1,2.3c-0.9,0.4-2.6,1-3.7,0.3c-1.1-0.7-5.5-3.3-5-2.5
		c0.5,0.8-2.1-1-2-0.4c0.1,0.6,2,2.9,1.1,2.6c-0.8-0.3-1.5,0.7-2,1c-0.5-0.3-1.3-0.5-1.9-0.8c-1.2-0.6-3.1-0.8-4-2
		c-0.9-1.2,1.4-0.9,5.1-1.1c3.7-0.3,2-2.1,0.3-1.9c-1.7,0.1,1.5-1.8-0.6-1.7c-2.1,0.2-2-1-5.8-1.5c-3.8-0.5-3.4-1.1-4.1-1.2
		c-0.8-0.1-3.7,0-1.1-1.5c2.6-1.4,4.6-0.3,5.8-0.7c1.2-0.4,4.3-0.1,5.8,0.2c1.5,0.4,3.4-0.3,2.9-1.2c-0.5-0.8-4-1.4-2.9-1.8
		c1.1-0.4,0.8-2.6,0-1.8c-0.8,0.7-3.2,0.2-6.7,0.5c-3.5,0.3-5.4,0.1-4.9-0.4c0.5-0.5,0.2-1.8-1.7-1.8c-1.8,0-2.4-2.1-4.7-2.9
		c-2.3-0.8-2.3-0.9-2.1-1.3c0.2-0.4,0.2-1.1-0.3-2.3c-0.5-1.2-4.6-1.7-6.8-2.6c-2.1-0.9,0.9-1.2,2.5-2c1.5-0.8,3.8-0.3,4.6-0.3
		c0.8-0.1,3.7,1.7,4.4,1.5c0.8-0.2,1.9-2.1,2.9-3.1c1.1-0.9,4.4,0.2,6.3-0.5c1.8-0.6-1.5-1.8-2.7-2.1c-1.2-0.3,0.3-1.4-1.4-1
		c-1.7,0.4-1.5-0.9-3.5-0.7c-2,0.1-1.7,0.2-2.8,0.6c-1.1,0.4-1.7-1.1-2.2-1.8c-0.5-0.6,0.3-1.6-1-1.5c-1.4,0.1-1.2-1.4-2.3-1.3
		c-1.1,0.1-2.6-0.2-4.3-0.3c-1.7-0.1-1.8-0.4-2-1.8c-0.1-1.3,1.4,0,2.2-0.2c0.8-0.2,1.1-0.8,2.2-1.1c1.1-0.3,0.3-0.8-1.1-1.5
		c-1.4-0.7-0.8-1.2,0.2-1.5s2.5,0.1,3.1,0.3c0.6,0.1,1.7-1.2,2.2-1.4c0.5-0.2,1.4-2,0.9-1.9s-1.5-1.2-2.6-0.9
		c-1.1,0.3,1.1-1.8,1.2-2.4c0.2-0.6-2.9,1.1-2.3,0.4c0.6-0.7-4.6,1.7-5.9,2.3c-1.2,0.7-3.2,0.1-4.3-0.3c-1.1-0.4,0.5-1.5,1.2-2.1
		c0.8-0.6-0.3-1.3-1.8-1.6c-1.5-0.3-2.3-1.2-3.1-1.9c-0.8-0.7,2.3-0.8,3.9-1c1.5-0.2,4.8-0.2,6.2-0.4c1.4-0.2,2.2-1.5,1.2-1.9
		c-1-0.4-0.7-0.9-0.1-1.7c0.6-0.8-1.8,0-3.4,0.7c-1.5,0.7,1.2-1.8,1.4-2.3c0.2-0.5,0.6-1.3-1.6-0.3c-2.2,1-4.3,2.6-6,3
		c-1.7,0.4-1.2-1.7-2.1-1c-0.9,0.7-0.1-0.9,0.5-2.1c0.6-1.2-1.4,1.4-3.6,1.8c-2.2,0.3,0.6-1,0.8-1.4c0.2-0.4-1.4,0.9-3.6,1.5
		c-2.2,0.6-1.1-1.6-2.5-1.9c-1.4-0.4-3.1-1.2-1.7-1.9c1.4-0.7,2.8-0.5,4.9-1.3c2.2-0.8,1.1-1.4,1.1-1.4c1.3-0.7,3,0.4,4.5,0.9
		c1.5,0.5,2.9-1,3.7-1.5c0.8-0.5-0.9-0.8-3.2-1.2c-2.3-0.4,2.7-0.8,5.4-1c2.8-0.2,0.8-0.8,1.1-0.8c0.3,0,2.1-1.2,2.2-1.5
		c0.1-0.3-4.1-0.1-4.1-0.1s0.6-1.1,0.5-1.4s-0.1-0.8-0.7-0.5c-0.6,0.3-3.4,1.8-3.4,1.8s-1.9,0.3-3.2,1c-1.2,0.7-3.2,0.6-4.8,1
		c-1.6,0.4-3.5-1.2-5.1-1.5c-1.6-0.3-3.3-0.3-6.4,0.3c-3.1,0.6-3,0.1-3.7-0.4s0.9-0.7,1.8-0.8c0.8-0.1,5.8-1.3,8.4-1.8
		c2.7-0.4,5.3,0.2,6.6,1.1c1.2,0.9,3-0.4,1.7-1.6c-1.3-1.2-3.6-2.4-2.9-2.6c0.7-0.1,2.5-2.5,3.5-3.4c1-1-5.6,0.4-7.1,0.5
		c-1.4,0.1-0.8-1-2.1-1.5c-1.3-0.5,0.3-1.4,0.3-2.3c0-0.9-3.6-0.8-5.6-1.2c-2.1-0.4,2.3-1,3.6-1.3c1.3-0.3,4.3,0,6-0.8
		c1.6-0.8-1.1-1.8-2.7-2.1c-1.5-0.3,0.2-0.7,1.1-1.7c0.9-1-3.6,0.1-5.6,0.4c-2.1,0.3,2.5-1.8,3.9-2.2c1.4-0.5-1.2-0.4-2.8-0.2
		c-1.5,0.2-2.1,1.9-3.4,1.9c-1.3,0.1,0.5-1.2,0.7-1.5c0.2-0.3,1.3-1.3,0-0.8c-1.3,0.5-4.4,0.9-5.8,1c-1.3,0.1,0.1-0.8-0.8-0.8
		c-0.9,0-1.9,0.1-2.3,0.2c-0.4,0.1-1.9,1.8-2.5,2.5c-0.6,0.7-2.7-0.3-2.7-0.3s-0.1-4.4-0.1-4.9c0-0.5,1.9-0.9,2.4-1
		c0.5-0.1,4.1-1.7,5-2.2c0.8-0.6,3.1-2.6,3.8-3.1c0.7-0.6,0-1.9,0-2.4c0-0.4-0.7-1-1.1-1.4c-0.4-0.4-0.8-0.6-1.5-1.2
		c-0.7-0.6-1.9,0.2-3.3,0.4c-1.4,0.2-2.8,1.5-3.4,1.6c-0.6,0.2-0.5-0.2-0.4-0.8c0.1-0.6,0.6-1.6,1-2.2c0.4-0.5-0.8-0.8-1.4-0.8
		c-0.6,0,0.7-1.4,0.7-1.6c0-0.3-0.6-0.3-0.7-0.7c-0.1-0.4-1.8,0.5-2.1,0.6c-0.3,0.1-0.3-1.4-1.2-1.6c-0.9-0.1-0.6,1.1-1,1.8
		c-0.4,0.7-2.1-0.8-2.9-0.4c-0.8,0.4,1.9,1.7,3.4,2.8c1.4,1.1-0.5,1.5-1,1.9c-0.5,0.4-2.3,0.1-3.5,0.2s-0.3,1.4-1.1,1.2
		c-0.8-0.1-2.2,0.3-2.6,0.6c-0.4,0.3-1.9,0.6-1.9,1.3c0,0.7,2.5,1.2,2.7,1.5c0.2,0.3-1.4,0.4-1.6,0.6c-0.1,0.2,2.9,0.8,3.1,1
		c0.2,0.2-1.8,0.1-1.8,0.8c0,0.7,2.3-0.1,3.3,0.6c1,0.6-1.1,0.8-1.8,1.1c-0.6,0.3,6.1,0.5,6.1,0.5l0,2.6c0,0-1.5,0.4-2.1,0.5
		c-0.6,0.1-3.6,1.9-5.6,0.2c-2-1.7-2.5-1.8-2.8-3.3c-0.3-1.5-2.2,0.2-4.3-0.4c-2.2-0.6-1.6,1.4-1,2.6c0.6,1.1,4.6,1.9,2.9,2.1
		c-1.7,0.2,0.9,1.8-1.4,2c-2.3,0.2-1.1,0.9-3.4,1.9c-2.3,0.9-1.8,1.2-1.8,3.2c0,2,3.4-0.9,6.1-0.9c2.6,0-0.2,2.1-2,2.2
		c-1.9,0.1-3.4,2.1-3.8,3.9c-0.3,1.8-3.1-1.1-4.3-2.5c-1.2-1.4-3.3,0.3-5.4-0.4c-2.2-0.7,0,1.7-3.8,1.8c-3.7,0.1,0.8,1.5,0.3,3.8
		c-0.5,2.3,1.4,1.4,3.1,2.5c1.7,1.1-1.6,2.9-1.6,2.9s5.3-0.4,5.3,0s4.4-0.3,6.4,0.6c2,0.9,5.4-1.1,5.9,0.4c0.5,1.5-1.1,1.4-4.5,1.6
		c-3.4,0.2-1,1.2-4.6,1.8c-3.6,0.6-3.9,1-5.3,0.7c-1.4-0.3-1.1,1.5-2.7,1.1c-1.6-0.4-3,2.5-3.8,4c-0.8,1.5,4.8,0.5,8.9,1.6
		c4,1.1-2,2.5-6.1,2.3c-4-0.2-4.2,0-5.5,1.5c-1.3,1.5-4.5,1.6-7.7,3.7c-3.1,2.2,3.8-0.5,5.8,0.1c2,0.6-2.7,3.4-0.5,4.4
		c2.2,1,0.3,0.9,2.6,1.2c2.3,0.2,0.9,1.5,5.7,3.8c4.8,2.3,1.7,2.3,0.6,3.6c-1.1,1.3-6.2-2.4-9.8-2.8c-3.6-0.4-4.5-0.9-14.5-0.3
		c-10,0.6-6,2.2-13.4,6.1c-7.4,3.9,3.8-0.1,2.8,1.5c-1,1.6,4.1-0.6,9.1-1.3c5-0.7,9.1-1.6,7-0.2c-2.1,1.4,6.7-0.3,6.2,0.4
		c-0.5,0.7,5.8,0,4.4,1.2c-1.4,1.3,0.6,2-1.9,3.5c-2.5,1.5,6.3-0.4,11.9-2.6c5.6-2.1,4.7-1.4,5.8-0.2c1.1,1.2-2.2,1.4-6.3,2.7
		c-4.1,1.3-3,2.7-4.4,3s-4.4-0.8-9.5,0.8c-5.2,1.5-4.2-0.7-13.1,0.1c-8.9,0.7-6.1,1.6-11.7,4.5c-5.5,2.9-2.2,2.4-2.9,3.6
		c-0.6,1.2,4.6-2,5.8-0.8c1.2,1.2,5-0.1,8.3-2.3c3.3-2.3,4.2-0.9,3.4,1.2c-0.8,2.1,4.4,0.1,3.7,1.7c-0.6,1.6,2.2,0,2.5,1.9
		c0.3,1.8,1.4-0.4,4.7-1c3.3-0.6,0.3,0.9,1.1,2.3c0.8,1.3,0.6,3.4-2.6,4.3c-3.1,0.9-6.1-0.2-9.4,0c-3.3,0.2-4.3,2-8.7,2.5
		c-4.4,0.5-5.5,0.8-7.4,2.9c-1.9,2.1,0.9,1.4,4.7,0.2c3.8-1.2,4.6-0.4,3.8,0.9c-0.8,1.3,0.8,1.4,2.8,1.7c2,0.3,1.7,1.4,1.7,3.7
		c0,2.2-2.8,1.4-5.8,1c-3-0.4-2.9,1.9-5.2,2.1c-2.4,0.3-0.3,1.6-4.8,2.2c-4.4,0.6-1.3,2-4.9,2.8c-3.6,0.8-1.4,1.4-4,2
		c-2.5,0.6-1.3,0.8-3.7,2.9c-2.4,2.1,4.3-1,4.1,0.4c-0.2,1.4,1.1,0.6,4-0.9c2.9-1.5,3.2-1,7.4-0.8c4.2,0.2,4.9,1.6,4,3.4
		c-0.8,1.8,4.2,0,6.4,3c2.2,3.1,3,2.5,0.6,2.3c-2.4-0.2-0.3,2-3.5,1.9c-3.1-0.1-1.3,1.3-4.1,2.5c-2.9,1.2,0.8,1.5,0.9,4.2
		c0.1,2.7-2.1,1.6-4.3,0c-2.2-1.6-5.7,1.3-11.1,0.9c-5.4-0.4-5.1,1.6-7,1.7c-1.9,0.1-5.1,1.6-6.2,3.5c-1.1,2,2.4,0.4,5.7-0.8
		c3.3-1.2,5.9-0.5,7.8-0.3c1.9,0.2,0.9,2.5-2.4,3.7c-3.3,1.2-1.9,1.8-2.6,3c-0.6,1.2,4.8-2,8.2-1.9c3.5,0.1,5.5-1.8,9.7-3.3
		c4.1-1.5,1.4,2.2-0.2,4.2c-1.6,2,2.4,0.3,3.3,2.6c0.9,2.3,4.2,1.6,9.3,1.2c5-0.4,2.2,1.6,0.4,2.7c-1.7,1.1,3.5,0.2,3.6,1.5
		c0.1,1.3,3.2-2.5,7-4.1c3.8-1.6,2.5,0.5,2.9,3.1c0.4,2.6-1.6,2.9-4.6,3.2c-3,0.3-4.7,0.3-5.8,2c-1.1,1.8-3.8,0.8-7.4,0.2
		c-3.6-0.6-2.5,0.8-4.6,0.7c-2-0.1-4,1.3-5.9,1.4c-1.9,0.1-5.4,0.5-8.5,1.3c-3.2,0.7-5.4-0.1-7.1-0.1c-1.7-0.1-2.9,1.1-3.2,2.5
		c-0.3,1.4-4.8,1.3-9.9,2.3c-5.1,1-9.1,5.7-11.2,6.9c-2.1,1.3,3.5-0.8,4.3,0.9c0.8,1.7,9.6-1.3,10.6,0c1.1,1.3,5.3-2.1,6.8-1.1
		c1.6,1,5.6-3.8,8-4.8c2.4-1,3.9,1.5,5.8,3c1.9,1.5,6-0.2,6.8,0.7c0.8,0.9,7.9,0.3,10.2,0.9c2.4,0.7,6.5,0.1,9.3,0.4
		c2.8,0.4-1.8,1.9-5.2,3.1c-3.5,1.2-3.6-0.1-4.9-0.8c-1.3-0.7-4.4-0.8-8.7,0c-4.3,0.8-3-0.2-6.5-1.3c-3.5-1.2-3.3,1.2-7,0.1
		c-3.6-1.1-2.2,1.2-5.7,0.7c-3.5-0.5-1,1.3-4.8,0.4c-3.8-0.9,0,1.7-3.4,1.7c-3.3,0.1-2.7,0.6-4.3,0.6c-1.6,0-1,1.1-6.6,3.2
		c-5.6,2.1-13.3,3.2-16.3,4.5c-3.1,1.2-1.6,2.5-5.8,4.6c-4.2,2.1,4.8-0.1,3.5,1.9c-1.3,2,3.4-0.6,6.1-2.7c2.7-2.1,5.4,0,6.2,1.6
		c0.8,1.6,1.7,0.2,1.7,3.9c-0.1,3.8,3.2-0.6,4,0c0.8,0.5,4.6-2.3,6.7-3.9c2.1-1.7,4.9,0.6,3.9,1.9c-1,1.4-1.9,1.1,0.3,3.5
		c2.2,2.4,4.8-2.5,4.1-0.3c-0.7,2.1,4.1,0,5.9-1.3c1.8-1.2,3.5-1.5,9.2-4.4c5.7-2.9,4.8-2.4,3,0.3c-1.8,2.7-2.2,2.4-2.4,3.3
		c-0.2,0.9,3.3-0.9,4.5-1.7c1.1-0.9,4.2,1.8,6.8,3.7c2.5,1.9-7.3,0.6-12,0.1c-4.7-0.5-5.7,0.7-9.2,1.9c-3.5,1.3-3-0.1-10.3,1.9
		c-7.3,2.1-4.4-0.5-7.4-1.9c-3-1.3-1.8,1.8-5.6,0.6c-3.8-1.3,0.6,3.6-3.1,3.3c-3.7-0.3-1.1,1.7-6.1,0.6c-4.9-1.1-0.4,2.5-4.3,1.6
		c-4-0.9-1,1.8-4.5,0.5c-3.5-1.3,0.1,2-2.1,2.2c-2.2,0.2-1.6,1.8-2.1,3.9c-0.5,2.1-3.6,2.7-4.9,4.6c-1.3,1.9,3.5,1.3,5.1-0.7
		c1.6-2,3.7-1.3,5.9-0.7c2.2,0.6-1.2,2.8,0.7,4c1.9,1.2,4.5,0.8,5.3-1c0.8-1.9,3.2-3.1,6.3-6.4c3.1-3.2,3,1.8,2,4.8
		c-1,3,6.7-2.1,6.1,0.4c-0.7,2.5,5.9-3.8,5.6-2.4c-0.3,1.4,5.6-3,6.7-0.4c1.1,2.7,6.1-3.1,7.4-4.5c1.3-1.4,4-0.2,5.2,1.2
		c1.2,1.5-3.6,5-3.6,5s0,0,2.7,3c2.7,3,1-1.4,9.5-2.8c8.6-1.4,3.8,0.9,3.8,0.9s5.5,5,4.5,5.4c-1,0.5-4.4,0.1-14.3,0.5
		c-9.8,0.4-9.5-0.7-13.5-0.8c-4-0.2,0,0-2.1,0.9c-2.1,0.9-4.3,2.6-6.4,2.8c-2.1,0.2-5.7,0.1-8.1-0.5c-2.4-0.6-0.4,2.4-2.9,3.2
		c-2.6,0.8-1.1,1.8-3.9,4.4c-2.8,2.6-2.6,3.6-5.8,5.9c-3.2,2.3-0.3,1.7-3.7,2.4c-3.4,0.7-2.1,1.9-3.1,3.8c-1,2-1.2,2.2-2,3.4
		c-0.3,0.4-0.5,0.9-0.3,1.3h5.5c3.1-1.3,6.1-3.9,5.3-3c-1,1.1,4.2-0.8,9.6-2.3c5.5-1.6,4.8-0.5,2.4,1.7c-2.4,2.2-3.7,1.6-6.4,3.2
		c-0.3,0.2-0.5,0.3-0.7,0.4h13c0.2-0.1,0.3-0.1,0.3-0.1c0,0,0,0,0,0.1h0.6c1.7-0.3,6.1-1.5,7-0.3c0.2,0.2,0.4,0.3,0.7,0.3h0.7
		c2.4-0.2,7-2.7,9.2-3.4c2.7-0.9,7.8-0.2,7.8,0.4c0,0.5-5.7,1.9-9.2,3h170.8H1600V520.4C1599.4,520.8,1599,521.1,1598.6,521.2z"/>
	<path d="M1215.9,895.7c1.2-0.4,1.9-2.4,1-1.5c-0.9,0.9-4.3-0.5-8.3-0.5c-4,0-6.1-0.1-5.6-0.8c0.6-0.6,0.2-1.9-1.9-2
		c-2.1-0.1-2.7-3.5-5.3-4.7c-2.6-1.3-2.1-1.4-1.9-2c0.2-0.5,0.4-1.6-0.1-3.3c-0.5-1.7-5.3-3.1-7.7-4.5c-2.5-1.4,0.5-1.1,2.3-2
		c1.8-0.9,4.5,0.7,5.4,0.7c0.9,0,4.1,1.5,5,1.4c0.9-0.1,2.1-2.5,3.4-3.6c1.3-1.2,5.6,1.3,7.8,0.7c2.2-0.6-2-3.1-3.4-3.6
		c-1.4-0.5,0.3-2.3-1.7-1.9c-2,0.4-1.6-0.3-3.9-0.3c-2.3,0-1.6,0.2-2.9,0.6c-1.3,0.4-2.7-2.1-3.2-3c-0.5-0.9,0.9-1.8-0.7-1.8
		c-1.6,0-1.4-2.6-2.6-2.6c-1.3,0-3.3,0.5-5.2,0.3c-2-0.3-1.1-1.5-1.3-3.3c-0.1-1.8,0.8,0.2,1.7,0.1c0.9-0.1,1.2-1.1,2.5-1.4
		c1.3-0.3,0.5-1-1.1-2c-1.6-1-0.9-1.6,0.2-2c1.1-0.4,2.5,0.9,3.2,1.1c0.7,0.3,2.2-2.2,2.7-2.4c0.6-0.3,2-2.2,1.4-2.1
		c-0.5,0.1-1.7-1.7-3-1.4c-1.3,0.3,1.3-2.6,1.5-3.4c0.2-0.8-3.3,1.3-2.6,0.4c0.8-0.9-5.6,1.9-7.1,2.7c-1.5,0.8-3.4-0.9-4.7-1.5
		c-1.3-0.6,0.8-0.9,1.7-1.7c0.9-0.8-1.2-2-3-2.5c-1.8-0.5-2.7-2-3.6-3c-0.9-1,2.9-1.3,4.7-1.5c1.8-0.1,5.7,0.6,7.4,0.5
		c1.7-0.1,2.1-1.5,0.9-2.1c-1.2-0.6-0.7-1.9,0.1-2.9c0.8-1-1.4,0.5-3.2,1.3c-1.9,0.8,0.5-3,0.8-3.6c0.3-0.6,0.8-2.1-1.8-1
		c-2.6,1.2-4.8,3.5-6.8,3.9c-2,0.4-0.9-2-2-1.1c-1.1,0.9-1.2-1.7-0.5-3.3c0.8-1.5-1.2,1.4-3.8,1.6c-2.6,0.2,0.5-0.8,0.7-1.3
		c0.2-0.5-1.6,0.5-4.2,1.2c-2.6,0.6-0.9-1.8-2.5-2.4c-1.7-0.6-4.3-2.3-2.6-3.1c1.7-0.8,4.3,0.8,6.9-0.1c2.6-0.9,0-1.3,0.2-2.5
		c1.6-0.8,4.3,0.8,6.1,1.6c1.8,0.8,2.8-1.4,3.8-2c1-0.6-0.5-0.9-3.2-1.6c-2.7-0.7,3.2-1,6.5-1c3.3,0,1-1.2,1.4-1.2
		c0.4,0,2.7-1,2.9-1.3c0.1-0.3-3.3,0.7-5.5-0.1c-1.2-0.4,2.2-2,2.1-2.4s-1.7-1.4-2.4-1.1c-0.8,0.3-1.6,1.5-3.9,2.3
		c-1.9,0.6-1.5,1-3,1.9c-1.5,0.9-4.4,0.1-6.4,0.5c-2,0.4-4-2.3-6-2.9c-2-0.6-4,0.2-7.7,0.7c-3.7,0.5-3.7-0.7-4.6-1.5
		c-0.9-0.8,1.1-0.3,2.1-0.3s7.1-1.1,10.4-1.5c3.2-0.3,6.9-0.2,8.3,1.1c1.5,1.3,3.9-0.3,2.3-2c-1.6-1.7-5.1-3.3-4.2-3.4
		c0.9-0.1,3.4-2.9,4.7-4.1c1.3-1.2-7.2-0.4-9-0.4s-0.6-1.7-2.2-2.5c-1.6-0.8,0.9-1.4,0.9-2.6c0-1.2-5.1-1.7-7.6-2.4
		c-2.5-0.7,2.8-0.1,4.5-0.4c1.6-0.3,5.3,0,7.4-0.9c2-0.9-1.9-2.4-3.8-2.9c-1.9-0.5-0.1-1.5,1.1-2.8c1.2-1.3-3.8,0.1-6.4,0.3
		c-2.5,0.2,3.1-2,4.9-2.5c1.8-0.5-1.6-0.5-3.5-0.3c-1.9,0.2-2.6,2.1-4.3,2.1s1.5-1.5,1.8-1.9c0.3-0.4,0.5-2.2-1.1-1.7
		c-1.7,0.5-5.2,0.5-6.9,0.5c-1.7,0-3.1-0.1-3.7,0c-0.5,0.1,1.5-5.1,2.5-5.8c1-0.7,5-5.2,5.9-5.9c0.9-0.7-3.7-0.7-3.7-1.3
		c0-0.6,2.4-4.2,1.9-4.8c-0.5-0.6-3.2,2-4.1,1.1c-0.9-0.9-1.1-2.3-2.9-2.2c-1.8,0.1-3.3,1.9-4.1,2.1c-0.8,0.2-0.3-0.5-0.2-1.3
		s-0.2-2.3,0.4-3c0.5-0.7-0.6-1-1.4-1c-0.8,0-0.5-2.6-0.6-3.2c-0.1-0.5-1.8,0.3-2.2,0.5c-0.4,0.2,0-2.4-1.2-2.6
		c-1.2-0.3-0.7,2.1-1.2,2.9c-0.5,0.9-3.3-1.7-4.4-1.3c-1,0.4,3.1,2.8,4.9,4.4c1.8,1.7-0.4,2.3-1.1,2.8c-0.6,0.5-3.3-0.4-4.8-0.4
		c-1.5,0-0.1,1.5-1.2,1.3c-1-0.3-2.7,0.8-3.2,1.1s-2.7,0.5-2.6,1.4c0,0.9,4.2,1.6,4.5,2c0.3,0.4-2.6,0.7-2.7,0.9
		c-0.1,0.3,3.3,1.4,3.5,1.7c0.3,0.3-1.1-0.1-1.1,0.9c0,0.9,2.1,0,3.4,1c1.3,1-2,0.6-2.8,0.9c-0.8,0.3,5.5-0.4,8.7,1.2
		c2.1,1.1,0,2.3-0.7,4c-0.4,0.9-1.5,1-2.2,1.1c-0.8,0.1-4.5,1.6-7.1-0.9c-2.5-2.5-2.6-2.6-3.1-4.7c-0.4-2.1-3.3,0.3-6-0.8
		c-2.7-1.1-1.4,1.6-0.6,3.1c0.8,1.6,5.4,2.9,3.3,3c-2.1,0.1,1.3,3.2-1.5,3.3c-2.9,0.1-0.9,1.2-3.7,2.2c-2.8,1-1.8,0.9-1.7,3.6
		c0.1,2.7,3.3-0.3,6.5,0c3.2,0.3,0,2.6-2.3,2.6c-2.3,0-4.7,2.2-5,4.5c-0.3,2.3-3-1.8-4.6-3.8c-1.6-2-4.1,0.1-6.8-1
		c-2.7-1.2,0,3-4.5,2.7c-4.5-0.3,0.5,1.4,0.1,4.5c-0.4,3.1,2.3,2.1,4.4,3.8c2.1,1.7-4,2.1-1.9,3.9c2.1,1.8,7.1-0.1,7.1,0.4
		c0,0.5,5.4-0.5,7.8,1c2.5,1.4,5.7-0.5,6.3,1.6c0.6,2.1-1,1.7-5.1,1.7s-0.9,2.3-5.2,2.8c-4.3,0.5-4.8,0.4-6.5-0.1
		c-1.7-0.5-1.4,2.2-3.3,1.5c-1.9-0.7-4,2.7-4.8,4.7c-0.8,1.9,6.1,1.9,11,3.8c4.9,1.8-1.8,2.3-6.6,1.7c-4.8-0.7-5.2-0.1-6.6,1.8
		c-1.4,1.9-5.4,1.5-9,4.1c-3.5,2.6,4.3,0.2,6.8,1.3c2.4,1-2.5,3.8,0.1,5.4c2.6,1.6,0.3,1.7,3,2.2c2.8,0.5,1.6,1.5,7.4,5
		c5.8,3.5,2.6,3.8,1.4,5.5c-1.2,1.7-8.3-3.6-12.5-4.5c-4.2-0.9-5.2-1.4-16.8-1.5c-6.2-0.1-7.5,0.6-8.7,1.9c-0.5,0.2-1.3,0.6-1.9,1
		c-1.1,0.7,0.9-1.8,1-2.3c0.1-0.5,0.4-1.3-1.1-0.3c-1.5,1-3,2.6-4.2,3c-1.2,0.4-0.9-1.7-1.5-1c-0.6,0.7-0.1-0.9,0.3-2.1
		c0.4-1.2-1,1.4-2.5,1.8c-1.5,0.3,0.4-1,0.5-1.4c0.1-0.4-1,0.9-2.5,1.5c-1.5,0.6-0.7-1.6-1.7-1.9c-1-0.4-2.1-1.2-1.2-1.9
		c1-0.7,1.9-0.5,3.4-1.3c1.5-0.8,0.8-1.4,0.8-1.4c0.9-0.7,2.1,0.4,3.1,0.9c1.1,0.5,2-1,2.6-1.5c0.6-0.5-0.6-0.8-2.2-1.2
		c-1.6-0.4,1.9-0.8,3.8-1c1.9-0.2,0.6-0.8,0.8-0.8c0.2,0,1.4-1.2,1.5-1.5c0.1-0.3-2.9-0.1-2.9-0.1s0.4-1.1,0.4-1.4s-0.1-0.8-0.5-0.5
		c-0.4,0.3-2.4,1.8-2.4,1.8s-1.4,0.3-2.2,1c-0.9,0.7-2.2,0.6-3.4,1c-1.1,0.4-2.4-1.2-3.6-1.5c-1.1-0.3-2.3-0.3-4.5,0.3
		c-2.2,0.6-2.1,0.1-2.6-0.4c-0.5-0.6,0.7-0.7,1.2-0.8c0.6-0.1,4-1.3,5.9-1.8c1.9-0.4,3.7,0.2,4.6,1.1c0.9,0.9,2.1-0.4,1.2-1.6
		c-0.9-1.2-2.5-2.4-2-2.6c0.5-0.1,1.7-2.5,2.5-3.4c0.7-1-3.9,0.4-4.9,0.5c-1,0.1-0.6-1-1.5-1.5c-0.9-0.5,0.2-1.4,0.2-2.3
		c0-0.9-2.5-0.8-3.9-1.2c-1.4-0.4,1.6-1,2.5-1.3c0.9-0.3,3,0,4.2-0.8c1.1-0.8-0.8-1.8-1.9-2.1c-1.1-0.3,0.1-0.7,0.8-1.7
		c0.6-1-2.5,0.1-3.9,0.4c-1.4,0.3,1.7-1.8,2.7-2.2c1-0.5-0.9-0.4-1.9-0.2c-1.1,0.2-1.4,1.9-2.4,1.9c-0.9,0.1,0.4-1.2,0.5-1.5
		c0.1-0.3,0.9-1.3,0-0.8c-0.9,0.5-3.1,0.9-4,1c-0.9,0.1,0.1-0.8-0.6-0.8c-0.6,0-1.3,0.1-1.6,0.2c-0.3,0.1-1.3,1.8-1.7,2.5
		c-0.4,0.7-1.9-0.3-1.9-0.3s0-4.4,0-4.9c0-0.5,1.3-0.9,1.7-1c0.4-0.1,2.9-1.7,3.5-2.2c0.6-0.6,2.2-2.6,2.7-3.1c0.5-0.6,0-1.9,0-2.4
		c0-0.4-0.5-1-0.8-1.4c-0.3-0.4-0.6-0.6-1.1-1.2c-0.5-0.6-1.3,0.2-2.3,0.4c-1,0.2-1.9,1.5-2.4,1.6c-0.4,0.2-0.4-0.2-0.3-0.8
		c0.1-0.6,0.4-1.6,0.7-2.2c0.3-0.5-0.6-0.8-1-0.8c-0.4,0,0.5-1.4,0.5-1.6c0-0.3-0.4-0.3-0.5-0.7c-0.1-0.4-1.2,0.5-1.4,0.6
		c-0.2,0.1-0.2-1.4-0.8-1.6c-0.6-0.1-0.4,1.1-0.7,1.8c-0.3,0.7-1.4-0.8-2-0.4c-0.6,0.4,1.4,1.7,2.4,2.8c1,1.1-0.4,1.5-0.7,1.9
		c-0.4,0.4-1.6,0.1-2.4,0.2c-0.9,0.1-0.2,1.4-0.8,1.2c-0.6-0.1-1.5,0.3-1.8,0.6c-0.3,0.3-1.3,0.6-1.3,1.3c0,0.7,1.7,1.2,1.9,1.5
		c0.1,0.3-1,0.4-1.1,0.6c-0.1,0.2,2,0.8,2.2,1c0.1,0.2-1.2,0.1-1.2,0.8c0,0.7,1.6-0.1,2.3,0.6c0.7,0.6-0.8,0.8-1.2,1.1
		s4.2,0.5,4.2,0.5l0,2.6c0,0-1,0.4-1.5,0.5s-2.5,1.9-3.9,0.2c-1.4-1.7-1.7-1.8-1.9-3.3c-0.2-1.5-1.5,0.2-3-0.4
		c-1.5-0.6-1.1,1.4-0.7,2.6c0.4,1.1,3.2,1.9,2,2.1c-1.2,0.2,0.6,1.8-1,2c-1.6,0.2-0.8,0.9-2.4,1.9c-1.6,0.9-1.2,1.2-1.2,3.2
		c0,2,2.4-0.9,4.2-0.9c1.8,0-0.1,2.1-1.4,2.2c-1.3,0.1-2.4,2.1-2.6,3.9c-0.2,1.8-2.2-1.1-3-2.5c-0.9-1.4-2.3,0.3-3.8-0.4
		c-1.5-0.7,0,1.7-2.6,1.8c-2.6,0.1,0.5,1.5,0.2,3.8c-0.3,2.3,1,1.4,2.2,2.5c1.2,1.1-1.1,2.9-1.1,2.9s3.7-0.4,3.7,0
		c0,0.4,3-0.3,4.4,0.6c1.4,0.9,3.8-1.1,4.1,0.4c0.3,1.5-0.8,1.4-3.1,1.6c-2.4,0.2-0.7,1.2-3.2,1.8c-2.5,0.6-2.7,1-3.7,0.7
		c-1-0.3-0.8,1.5-1.9,1.1c-1.1-0.4-2.1,2.5-2.6,4c-0.6,1.5,3.4,0.5,6.2,1.6c2.8,1.1-1.4,2.5-4.3,2.3c-2.8-0.2-2.9,0-3.8,1.5
		c-0.9,1.5-3.2,1.6-5.4,3.7c-2.2,2.2,2.6-0.5,4,0.1c1.4,0.6-1.9,3.4-0.4,4.4c1.5,1,0.2,0.9,1.8,1.2c1.6,0.2,0.6,1.5,4,3.8
		c3.4,2.3,1.2,2.3,0.4,3.6c-0.8,1.3-4.3-2.4-6.8-2.8c-2.5-0.4-3.2-0.9-10.2-0.3c-7,0.6-4.2,2.2-9.4,6.1c-5.2,3.9,2.6-0.1,2,1.5
		c-0.7,1.6,2.9-0.6,6.4-1.3c3.5-0.7,6.4-1.6,4.9-0.2c-1.4,1.4,4.7-0.3,4.4,0.4c-0.3,0.7,4,0,3,1.2c-1,1.3,0.4,2-1.3,3.5
		c-1.8,1.5,4.4-0.4,8.3-2.6c3.9-2.1,3.3-1.4,4-0.2c0.8,1.2-1.5,1.4-4.4,2.7c-2.8,1.3-2.1,2.7-3.1,3c-1,0.3-3-0.8-6.7,0.8
		c-3.6,1.5-2.9-0.7-9.2,0.1c-0.6,0.1-1.1,0.1-1.6,0.2c0.6-0.4,1.2-0.8,1.3-1c0.1-0.3-4.1-0.1-4.1-0.1s0.6-1.1,0.5-1.4
		s-0.1-0.8-0.7-0.5c-0.6,0.3-3.4,1.8-3.4,1.8s-1.9,0.3-3.2,1c-1.2,0.7-3.2,0.6-4.8,1c-1.6,0.4-3.5-1.2-5.1-1.5
		c-1.6-0.3-3.3-0.3-6.4,0.3c-3.1,0.6-3,0.1-3.7-0.4c-0.7-0.6,0.9-0.7,1.8-0.8c0.8-0.1,5.8-1.3,8.4-1.8c2.7-0.4,5.3,0.2,6.6,1.1
		c1.2,0.9,3-0.4,1.7-1.6c-1.3-1.2-3.6-2.4-2.9-2.6c0.7-0.1,2.5-2.5,3.5-3.4c1-1-5.6,0.4-7.1,0.5c-1.4,0.1-0.8-1-2.1-1.5
		c-1.3-0.5,0.3-1.4,0.3-2.3c0-0.9-3.6-0.8-5.6-1.2c-2.1-0.4,2.3-1,3.6-1.3c1.3-0.3,4.3,0,6-0.8c1.6-0.8-1.1-1.8-2.7-2.1
		c-1.5-0.3,0.2-0.7,1.1-1.7c0.9-1-3.6,0.1-5.6,0.4c-2.1,0.3,2.5-1.8,3.9-2.2c1.4-0.5-1.2-0.4-2.8-0.2c-1.5,0.2-2.1,1.9-3.4,1.9
		c-1.3,0.1,0.5-1.2,0.7-1.5c0.2-0.3,1.3-1.3,0-0.8c-1.3,0.5-4.4,0.9-5.8,1c-1.3,0.1,0.1-0.8-0.8-0.8c-0.9,0-1.9,0.1-2.3,0.2
		c-0.4,0.1-1.9,1.8-2.5,2.5c-0.6,0.7-2.7-0.3-2.7-0.3s-0.1-4.4-0.1-4.9c0-0.5,1.9-0.9,2.4-1c0.5-0.1,4.1-1.7,5-2.2
		c0.8-0.6,3.1-2.6,3.8-3.1c0.7-0.6,0-1.9,0-2.4c0-0.4-0.7-1-1.1-1.4c-0.4-0.4-0.8-0.6-1.5-1.2c-0.7-0.6-1.9,0.2-3.3,0.4
		c-1.4,0.2-2.8,1.5-3.4,1.6c-0.6,0.2-0.5-0.2-0.4-0.8c0.1-0.6,0.6-1.6,1-2.2c0.4-0.5-0.8-0.8-1.4-0.8c-0.6,0,0.7-1.4,0.7-1.6
		c0-0.3-0.6-0.3-0.7-0.7c-0.1-0.4-1.8,0.5-2.1,0.6c-0.3,0.1-0.3-1.4-1.2-1.6c-0.9-0.1-0.6,1.1-1,1.8c-0.4,0.7-2.1-0.8-2.9-0.4
		c-0.8,0.4,1.9,1.7,3.4,2.8c1.4,1.1-0.5,1.5-1,1.9c-0.5,0.4-2.3,0.1-3.5,0.2c-1.2,0.1-0.3,1.4-1.1,1.2c-0.8-0.1-2.2,0.3-2.6,0.6
		c-0.4,0.3-1.6,0.5-1.8,1.1c-0.5-0.1-0.7-0.4-1.8-0.4c-1.6,0-1.1,0.2-2,0.6c-0.9,0.4-1.8-2.2-2.2-3.1c-0.4-0.9,0.6-1.9-0.5-1.9
		s-0.9-2.7-1.8-2.7c-0.9,0-2.2,0.5-3.6,0.3c-1.4-0.3-0.8-1.6-0.9-3.4c-0.1-1.8,0.6,0.2,1.2,0.1c0.6-0.1,0.9-1.2,1.7-1.4
		c0.9-0.3,0.4-1-0.7-2.1c-1.1-1.1-0.6-1.6,0.1-2c0.8-0.4,1.7,0.9,2.2,1.1c0.5,0.3,1.5-2.2,1.9-2.5c0.4-0.3,1.4-2.2,1-2.1
		c-0.4,0.1-1.2-1.7-2-1.4c-0.9,0.3,0.9-2.7,1-3.5c0.1-0.8-2.3,1.3-1.8,0.4c0.5-0.9-3.8,1.9-4.8,2.7c-1,0.8-2.4-0.9-3.2-1.5
		c-0.9-0.7,0.5-1,1.2-1.7c0.6-0.8-0.8-2-2.1-2.5c-1.2-0.5-1.9-2-2.5-3.1c-0.6-1.1,2-1.4,3.2-1.5c1.3-0.1,3.9,0.6,5.1,0.5
		c1.1-0.1,1.4-1.5,0.6-2.2c-0.8-0.7-0.5-1.9,0-3c0.5-1.1-0.9,0.5-2.2,1.4c-1.3,0.8,0.4-3,0.5-3.7c0.2-0.7,0.5-2.2-1.3-1
		c-1.8,1.2-3.3,3.6-4.7,4c-1.4,0.4-0.6-2.1-1.4-1.2c-0.8,0.9-0.9-1.8-0.3-3.3c0.5-1.6-0.8,1.4-2.6,1.7c-1.8,0.2,0.4-0.8,0.5-1.3
		c0.1-0.5-1.1,0.5-2.9,1.2c-1.8,0.7-0.6-1.8-1.7-2.5c-1.1-0.7-2.9-2.4-1.8-3.2c1.1-0.8,2.9,0.8,4.7-0.1c1.8-0.9,0-1.4,0.2-2.6
		c1.1-0.8,2.9,0.8,4.2,1.6c1.3,0.8,2-1.4,2.6-2c0.7-0.6-0.3-0.9-2.2-1.6c-1.9-0.7,2.2-1,4.5-1c2.3,0,0.7-1.2,1-1.2
		c0.3,0,1.9-1,2-1.3c0.1-0.4-2.3,0.7-3.8-0.1c-0.8-0.4,1.5-2,1.4-2.5s-1.1-1.5-1.7-1.1c-0.5,0.3-1.1,1.5-2.6,2.3
		c-1.3,0.6-1,1-2.1,1.9c-1,0.9-3,0.1-4.4,0.5c-1.4,0.4-2.8-2.3-4.1-2.9c-1.4-0.6-2.7,0.2-5.3,0.7c-2.6,0.5-2.6-0.7-3.2-1.5
		c-0.6-0.8,0.7-0.3,1.4-0.3c0.7,0,4.9-1.2,7.1-1.5c2.2-0.3,4.7-0.2,5.7,1.1c1,1.3,2.6-0.3,1.5-2.1c-1.1-1.8-3.5-3.4-2.9-3.5
		c0.6-0.1,2.3-3,3.2-4.2c0.9-1.2-5-0.4-6.2-0.4c-1.2,0-0.4-1.7-1.5-2.5c-1.1-0.8,0.6-1.5,0.6-2.7c0-1.2-3.5-1.7-5.2-2.5
		c-1.7-0.7,1.9-0.1,3.1-0.4c1.1-0.3,3.7,0,5-0.9c1.4-1-1.3-2.4-2.6-3c-1.3-0.5-0.1-1.5,0.7-2.8c0.8-1.3-2.6,0.1-4.4,0.3
		c-1.7,0.2,2.2-2.1,3.4-2.6c1.2-0.5-1.1-0.5-2.4-0.3c-1.3,0.2-1.8,2.1-2.9,2.1c-1.1,0,1-1.5,1.2-1.9s0.4-2.3-0.8-1.8
		c-1.1,0.5-3.6,0.5-4.7,0.5c-1.1,0-2.2-0.1-2.5,0c-0.3,0.1,1-5.2,1.7-5.9c0.7-0.7,3.4-5.3,4-6c0.6-0.7-2.5-0.7-2.5-1.3
		c0-0.6,1.7-4.3,1.3-4.9c-0.4-0.6-2.2,2-2.8,1.1c-0.6-0.9-0.7-2.4-2-2.3c-1.2,0.1-2.3,2-2.8,2.2c-0.5,0.2-0.2-0.6-0.1-1.4
		c0.1-0.8-0.1-2.4,0.2-3.1c0.3-0.7-0.4-1.1-1-1.1c-0.5,0-0.3-2.7-0.4-3.2c-0.1-0.5-1.2,0.3-1.5,0.5c-0.3,0.2,0-2.4-0.8-2.7
		c-0.8-0.3-0.5,2.1-0.8,3c-0.3,0.9-2.3-1.7-3-1.3c-0.7,0.4,2.1,2.9,3.4,4.5c1.3,1.7-0.3,2.4-0.7,2.9c-0.4,0.5-2.2-0.4-3.3-0.4
		c-1.1,0-0.1,1.6-0.8,1.3c-0.7-0.3-1.9,0.8-2.2,1.2s-1.8,0.5-1.8,1.4c0,1,2.9,1.6,3.1,2.1c0.2,0.4-1.8,0.7-1.8,1
		c-0.1,0.3,2.2,1.4,2.4,1.8c0.2,0.4-0.8-0.1-0.8,0.9c0,1,1.4,0,2.3,1c0.9,1-1.4,0.6-1.9,1c-0.5,0.3,3.8-0.5,6,1.2
		c1.4,1.1,0,2.4-0.5,4.1c-0.3,0.9-1,1-1.5,1.2c-0.5,0.1-3.1,1.6-4.8-0.9c-1.7-2.5-1.8-2.7-2.1-4.8c-0.3-2.1-2.3,0.3-4.1-0.8
		c-1.9-1.1-1,1.6-0.4,3.2c0.6,1.6,3.7,2.9,2.3,3c-1.4,0.1,0.9,3.3-1.1,3.4c-2,0.1-0.6,1.2-2.5,2.3c-1.9,1-1.2,0.9-1.1,3.7
		c0.1,2.8,2.3-0.3,4.5,0c2.2,0.3,0,2.6-1.6,2.6c-1.6,0-3.3,2.3-3.5,4.7c-0.2,2.4-2-1.9-3.1-3.9c-1.1-2-2.8,0.2-4.7-1.1
		c-1.9-1.2,0,3.1-3.1,2.8c-3.1-0.3,0.4,1.4,0.1,4.6c-0.3,3.2,1.5,2.1,3,3.8c1.5,1.7-2.8,2.2-1.3,4c1.5,1.8,4.9-0.2,4.9,0.4
		c0,0.5,3.7-0.5,5.4,1c1.7,1.5,3.9-0.5,4.3,1.6c0.4,2.1-0.7,1.7-3.5,1.7s-0.6,2.3-3.6,2.9c-2.9,0.5-3.3,0.4-4.4-0.1
		c-1.2-0.5-0.9,2.2-2.2,1.6c-1.3-0.7-2.7,2.8-3.3,4.8c-0.6,2,4.2,2,7.5,3.9c3.3,1.9-1.2,2.4-4.5,1.7c-3.3-0.7-3.6-0.1-4.5,1.9
		c-0.9,2-3.7,1.6-6.1,4.2c-2.4,2.7,3,0.2,4.6,1.3c1.7,1.1-1.7,3.9,0.1,5.5c1.8,1.6,0.2,1.7,2.1,2.2c1.9,0.5,1.1,1.5,5.1,5.1
		c4,3.6,1.8,3.9,1,5.6c-0.8,1.7-5.7-3.7-8.6-4.6c-2.9-0.9-3.6-1.4-11.5-1.6c-8-0.1-4.2,2.3-9.8,7c-5.6,4.7,2.1-0.5,1.5,1.6
		c-0.6,2.1,3.5-0.9,7.4-1.5c3.9-0.5,7.2-0.7,5.7,1c-1.5,1.7,5.4,0.3,5.1,1.2c-0.3,0.9,4.9,0.8,3.9,2.4c-1.1,1.6-0.2,2-2.1,3.9
		c-1.9,1.9,5.6,1,10-1.4c0.1,0,0.1-0.1,0.2-0.1c0.6,0.2,1.1,0.4,1.2,0.5c0.2,0.3-1.4,0.4-1.6,0.6c-0.1,0.1,1,0.4,1.9,0.6
		c-0.7,0.2-1.5,0.4-2.4,0.8c-1.2,0.5-1.8,1.3-2.1,2c-0.8,0.1-2,0.6-3.3,0.2c-1.4-0.4-1.6,0.3-1.5,1.2c-1.1-0.2-2.5-0.3-4,0.4
		c-4,1.6-3.2-1.3-10.2-1.1c-4.1,0.1-5.1,0.6-6.1,1.7c-0.8-0.4-1.8-0.7-2.5-0.9c-1.9-0.5-0.1-1.5,1.1-2.8c1.2-1.3-3.8,0.1-6.4,0.3
		c-2.5,0.2,3.1-2,4.9-2.5c1.8-0.5-1.6-0.5-3.5-0.3c-1.9,0.2-2.6,2.1-4.3,2.1c-1.6,0,1.5-1.5,1.8-1.9c0.3-0.4,0.5-2.2-1.1-1.7
		c-1.7,0.5-5.2,0.5-6.9,0.5c-1.7,0-3.1-0.1-3.7,0c-0.5,0.1,1.5-5.1,2.5-5.8c1-0.7,5-5.2,5.9-5.9c0.9-0.7-3.7-0.7-3.7-1.3
		c0-0.6,2.4-4.2,1.9-4.8c-0.5-0.6-3.2,2-4.1,1.1c-0.9-0.9-1.1-2.3-2.9-2.2c-1.8,0.1-3.3,2-4.1,2.1c-0.8,0.2-0.3-0.5-0.2-1.3
		c0.1-0.8-0.2-2.3,0.4-3c0.5-0.7-0.6-1-1.4-1c-0.8,0-0.5-2.6-0.6-3.2c-0.1-0.5-1.8,0.3-2.2,0.5c-0.4,0.2,0-2.4-1.2-2.6
		c-1.2-0.3-0.7,2.1-1.2,2.9c-0.5,0.9-3.3-1.7-4.4-1.3c-1,0.4,3.1,2.8,4.9,4.4c1.8,1.7-0.4,2.3-1.1,2.8c-0.6,0.5-3.3-0.4-4.8-0.4
		c-1.5,0-0.1,1.5-1.2,1.3c-1-0.3-2.7,0.8-3.2,1.1s-2.7,0.5-2.6,1.4c0,0.9,4.2,1.6,4.5,2c0.3,0.4-2.6,0.7-2.7,0.9
		c-0.1,0.3,3.3,1.4,3.5,1.7c0.3,0.3-1.1-0.1-1.1,0.9c0,0.9,2.1,0,3.4,1c1.3,1-2,0.6-2.8,0.9c-0.8,0.3,5.5-0.4,8.7,1.2
		c2.1,1.1,0,2.3-0.7,4c-0.4,0.9-1.5,1-2.2,1.1c-0.8,0.1-4.5,1.6-7.1-0.9c-2.5-2.5-2.6-2.6-3.1-4.7c-0.4-2.1-3.3,0.3-6-0.8
		c-2.7-1.1-1.4,1.6-0.6,3.1c0.8,1.6,5.4,2.9,3.3,3c-2.1,0.1,1.3,3.2-1.5,3.3c-2.9,0.1-0.9,1.2-3.7,2.2c-2.8,1-1.8,0.9-1.7,3.6
		c0.1,2.7,3.3-0.3,6.5,0c3.2,0.3,0,2.6-2.3,2.6c-2.3,0-4.7,2.2-5,4.5c-0.3,2.3-3-1.8-4.6-3.8c-1.6-2-4.1,0.1-6.8-1
		c-2.7-1.2,0,3-4.5,2.7c-4.5-0.3,0.5,1.4,0.1,4.5c-0.4,3.1,2.3,2.1,4.4,3.8c2.1,1.7-4,2.1-1.9,3.9c2.1,1.8,7.1-0.1,7.1,0.4
		c0,0.5,5.4-0.5,7.8,1c2.5,1.4,5.7-0.5,6.3,1.6c0.6,2.1-1,1.7-5.1,1.7c-4.1,0-0.9,2.3-5.2,2.8c-4.3,0.5-4.8,0.4-6.5-0.1
		c-1.7-0.5-1.4,2.2-3.3,1.5c-1.9-0.7-4,2.7-4.8,4.7c-0.8,1.9,6.1,1.9,11,3.8c4.9,1.8-1.8,2.3-6.6,1.7c-4.8-0.7-5.2-0.1-6.6,1.8
		c-1.4,1.9-5.4,1.5-9,4.1c-3.5,2.6,4.3,0.2,6.8,1.3c1.9,0.8-0.6,2.6-0.7,4.1H834h114.8h36.4c-0.2-0.2-0.4-0.4-0.6-0.6
		c-0.8-0.7,2.3-0.8,3.9-1c1.5-0.2,4.8-0.2,6.2-0.4c1.4-0.2,2.2-1.5,1.2-1.9c-1-0.4-0.7-0.9-0.1-1.7c0.6-0.8-1.8,0-3.4,0.7
		c-1.5,0.7,1.2-1.8,1.4-2.3c0.2-0.5,0.6-1.3-1.6-0.3c-2.2,1-4.3,2.6-6,3c-1.7,0.4-1.2-1.7-2.1-1c-0.9,0.7-0.1-0.9,0.5-2.1
		c0.6-1.2-1.4,1.4-3.6,1.8c-2.2,0.3,0.6-1,0.8-1.4c0.2-0.4-1.4,0.9-3.6,1.5c-2.2,0.6-1.1-1.6-2.5-1.9c-1.4-0.4-3.1-1.2-1.7-1.9
		c1.4-0.7,2.8-0.5,4.9-1.3c2.2-0.8,1.1-1.4,1.1-1.4c1.3-0.7,3,0.4,4.5,0.9c0.2,0.1,0.3,0.1,0.5,0.1c-2.5,2.1-0.6,1.7-1,2.8
		c-0.5,1.2,3.2-2,4.1-0.8c0.9,1.2,3.5-0.1,5.8-2.3c2.3-2.3,3-0.9,2.4,1.2c-0.6,2.1,3.1,0.1,2.6,1.7c-0.5,1.6,1.5,0,1.7,1.9
		c0.2,1.8,1-0.4,3.3-1c2.3-0.6,0.2,0.9,0.7,2.3c0.5,1.3,0.4,3.4-1.8,4.3c-2.2,0.9-4.3-0.2-6.6,0c-1.4,0.1-2.2,0.8-3.3,1.5h80.4
		c0.1-0.1,0.3-0.3,0.5-0.4c0,0,0,0,0,0c0.1,0.1,0.2,0.3,0.2,0.4h128.9c3-1.7,4.8-0.7,6.2-1.1c0.9-0.3,2.7,0.4,4.3,1.1h5.3
		c0.2-0.3,0.3-0.6,0.1-0.9C1218.4,897.9,1214.6,896.1,1215.9,895.7z"/>
	<path d="M753.8,889c-5.9-3.3-1.9-5.1-10.3-5c-8.3,0.1-9,0.4-12.1,1.1c-3,0.7-8.1,4.5-9,3.3c-0.9-1.2-3.1-1.4,1-4
		c4.2-2.5,3.3-3.3,5.3-3.6c2-0.4,0.3-0.5,2.2-1.6c1.9-1.1-1.7-3.2,0.1-3.9c1.7-0.8,7.4,1,4.9-0.9c-2.5-1.9-5.4-1.6-6.4-3
		c-1-1.4-1.3-1.8-4.7-1.3c-3.5,0.5-8.2,0.1-4.7-1.2c3.5-1.3,8.5-1.3,7.9-2.7c-0.6-1.4-2.1-3.9-3.5-3.4c-1.4,0.5-1.1-1.5-2.3-1.1
		c-1.2,0.4-1.6,0.5-4.6,0.1c-3.1-0.4-0.8-2-3.7-2c-2.9,0-4.1,0.3-3.7-1.2c0.4-1.5,2.8-0.1,4.5-1.1c1.8-1,5.6-0.3,5.6-0.7
		c0-0.4,3.6,1,5.1-0.3c1.5-1.3-2.9-1.6-1.4-2.8c1.5-1.2,3.5-0.5,3.1-2.7c-0.3-2.3,3.3-3.5,0.1-3.3c-3.3,0.2-1.3-2.9-3.2-2
		c-1.9,0.9-3.8-0.7-4.9,0.8c-1.1,1.4-3.1,4.5-3.3,2.8c-0.2-1.7-2-3.3-3.6-3.3c-1.6,0-4-1.7-1.6-1.9c2.3-0.2,4.6,2,4.7,0
		c0.1-2,0.8-1.9-1.2-2.6c-2-0.7-0.6-1.5-2.7-1.6c-2-0.1,0.4-2.3-1.1-2.4c-1.5-0.1,1.8-1,2.4-2.2c0.6-1.1,1.5-3.1-0.4-2.3
		c-1.9,0.8-4-1-4.3,0.6c-0.3,1.5-0.4,1.6-2.2,3.4c-1.8,1.8-4.5,0.7-5.1,0.6c-0.5-0.1-1.3-0.2-1.6-0.8c-0.5-1.2-2-2.1-0.5-2.9
		c2.3-1.2,6.8-0.6,6.2-0.9c-0.5-0.2-2.9,0-2-0.7c0.9-0.7,2.4,0,2.4-0.7c0-0.7-1-0.4-0.8-0.6c0.2-0.3,2.6-1.1,2.5-1.2
		c-0.1-0.2-2.1-0.4-1.9-0.7c0.2-0.3,3.2-0.8,3.2-1.5c0-0.7-1.5-0.8-1.9-1c-0.4-0.2-1.6-1-2.3-0.8c-0.7,0.2,0.3-0.9-0.8-0.9
		c-1.1,0-3,0.7-3.4,0.3c-0.5-0.4-2.1-0.9-0.8-2.1c1.3-1.2,4.3-2.9,3.5-3.2c-0.7-0.3-2.8,1.6-3.1,0.9c-0.4-0.6,0-2.3-0.8-2.1
		c-0.8,0.2-0.6,2-0.8,1.9c-0.3-0.1-1.4-0.7-1.5-0.3c-0.1,0.4,0.1,2.3-0.4,2.3c-0.6,0-1.4,0.3-1,0.8c0.4,0.5,0.2,1.6,0.3,2.2
		c0.1,0.6,0.4,1.1-0.1,1c-0.6-0.1-1.7-1.5-2.9-1.5c-1.3-0.1-1.4,1-2.1,1.6c-0.6,0.6-2.6-1.2-3-0.8c-0.4,0.4,1.4,3,1.4,3.5
		c0,0.4-3.3,0.4-2.6,0.9c0.6,0.5,3.5,3.8,4.2,4.3c0.7,0.5,2.1,4.3,1.8,4.2c-0.4-0.1-1.4,0-2.6,0c-1.2,0-3.7,0-4.9-0.4
		c-1.2-0.4-1,0.9-0.8,1.3c0.2,0.3,2.5,1.4,1.3,1.4c-1.2,0-1.7-1.4-3.1-1.5c-1.4-0.1-3.8-0.1-2.5,0.2c1.3,0.4,5.4,2,3.5,1.9
		c-1.8-0.1-5.4-1.1-4.6-0.2c0.8,0.9,2.1,1.6,0.8,2c-1.4,0.4-4.2,1.4-2.7,2.1c1.5,0.7,4.1,0.5,5.3,0.7c1.2,0.2,5-0.2,3.2,0.3
		c-1.8,0.5-5.5,0.9-5.5,1.7c0,0.9,1.8,1.3,0.6,1.9c-1.2,0.6-0.4,1.8-1.6,1.8c-1.3,0-7.4-0.6-6.5,0.3c0.9,0.9,2.7,2.9,3.3,3
		c0.6,0.1-1.9,1.2-3,2.5c-1.1,1.3,0.6,2.4,1.6,1.5c1.1-0.9,3.7-1,6-0.8c2.3,0.2,6.7,1.1,7.4,1.1c0.7,0,2.1-0.4,1.5,0.2
		c-0.6,0.6-0.6,1.5-3.3,1.1c-2.7-0.4-4.1-0.9-5.5-0.5c-1.4,0.4-2.9,2.4-4.3,2.1c-1.4-0.3-3.5,0.3-4.6-0.4c-1.1-0.6-0.8-0.9-2.2-1.4
		c-1.7-0.5-2.2-1.4-2.8-1.6c-0.5-0.2-1.7,0.5-1.7,0.8s2.3,1.4,1.5,1.8c-1.6,0.6-4.1-0.2-4,0.1c0.1,0.2,1.8,1,2.1,1
		c0.3,0-1.4,0.9,1,0.8c2.4,0,6.6,0.2,4.7,0.7c-1.9,0.5-3,0.7-2.3,1.2c0.7,0.4,1.4,2,2.8,1.4c1.3-0.6,3.2-1.7,4.4-1.2
		c0.2,0.9-1.7,1.2,0.2,1.8c1.9,0.6,3.7-0.5,4.9,0.1c1.2,0.6-0.7,1.8-1.9,2.2c-1.2,0.5,0,2.2-1.8,1.7c-1.9-0.5-3.2-1.2-3-0.8
		c0.1,0.4,2.4,1.1,0.5,0.9c-1.9-0.2-3.3-2.3-2.7-1.2c0.5,1.1,0.5,3-0.3,2.4c-0.8-0.7,0,1.1-1.4,0.8c-1.5-0.3-3-2-4.9-2.8
		c-1.9-0.8-1.5,0.2-1.3,0.7c0.2,0.5,1.9,3.2,0.6,2.6c-1.3-0.6-2.9-1.7-2.3-1c0.5,0.7,0.8,1.5,0.2,2c-0.6-1-0.7-1.1-2.7-1
		c-2,0.1-5.1-0.9-3.1-1.7c2-0.8,4.8-0.1,4.4-1.2c-0.4-1.1-1.1-3.2-1.9-2.9c-0.8,0.3-0.6-1-1.3-0.8c-0.7,0.2-0.9-0.1-2.7-0.5
		c-1.8-0.5-0.6-1.2-2.3-1.3c-1.7-0.2-2.5-0.1-2.2-1.2c0.2-1.1,1.9,0.4,3-0.3c1-0.7,3.2-0.2,3.2-0.5c0-0.3,2.6,0,2.6,0
		s-1.6-1.3-0.8-2.1c0.9-0.8,1.8-0.1,1.5-1.8c-0.2-1.7,2-2.7,0.1-2.8c-1.9,0-0.8-1.8-1.9-1.3c-1.1,0.5-2.1-0.7-2.7,0.3
		s-2,3.1-2.2,1.8c-0.2-1.3-1-2.7-1.9-2.8c-0.9-0.1-2.3-1.6-1-1.6c1.3,0,3,2.1,3,0.6c0-1.5,0.3-1.7-0.9-2.3c-1.2-0.7-0.5-1.2-1.7-1.3
		c-1.2-0.2,0.1-1.3-0.7-1.5c-0.9-0.2,1.2-0.7,1.5-1.5c0.3-0.8,0.6-2.3-0.5-1.9c-1.1,0.5-2-0.8-2.2,0.3c-0.1,1.1-0.4,1.2-1.4,2.4
		c-1,1.2-2.5,0-2.8-0.1s-1.1-0.4-1.1-0.4l0-1.9c0,0,3.4-0.1,3-0.4c-0.3-0.2-1.4-0.4-0.9-0.8c0.5-0.5,1.7,0.1,1.6-0.4
		c0-0.5-1-0.4-0.9-0.6c0.1-0.2,1.6-0.6,1.5-0.7c-0.1-0.1-0.9-0.2-0.8-0.4c0.1-0.2,1.3-0.6,1.3-1.1c0-0.5-0.7-0.7-0.9-0.9
		c-0.2-0.2-0.9-0.5-1.3-0.4c-0.4,0.1,0-0.8-0.6-0.9s-1.5,0.1-1.8-0.2c-0.3-0.3-1.2-0.6-0.5-1.4c0.7-0.8,2.1-1.8,1.7-2.1
		c-0.4-0.3-1.2,0.8-1.4,0.3c-0.2-0.5-0.1-1.4-0.5-1.3c-0.5,0.1-0.5,1.3-0.6,1.1c-0.2-0.1-1-0.7-1-0.5c0,0.3-0.4,0.3-0.4,0.5
		c0,0.2,0.7,1.2,0.4,1.2c-0.3,0-0.9,0.2-0.7,0.6c0.2,0.4,0.5,1.2,0.5,1.6c0.1,0.4,0.1,0.7-0.2,0.6c-0.3-0.1-1-1.1-1.7-1.2
		c-0.7-0.1-1.3-0.7-1.6-0.3c-0.4,0.4-0.6,0.6-0.8,0.9c-0.2,0.3-0.6,0.7-0.6,1s-0.4,1.3,0,1.7c0.4,0.4,1.5,1.9,1.9,2.3
		c0.4,0.4,2.2,1.6,2.5,1.6c0.3,0.1,1.2,0.3,1.2,0.7c0,0.4,0,3.6,0,3.6s-1,0.7-1.3,0.2c-0.3-0.5-1-1.7-1.2-1.8
		c-0.2-0.1-0.7-0.2-1.1-0.2c-0.5,0,0.3,0.6-0.4,0.6c-0.7-0.1-2.2-0.4-2.9-0.7c-0.7-0.3-0.1,0.4,0,0.6c0.1,0.2,1,1.2,0.4,1.1
		c-0.7-0.1-0.9-1.3-1.7-1.4c-0.8-0.2-2.1-0.2-1.4,0.1c0.7,0.3,3,1.8,2,1.6c-1-0.2-3.3-1-2.8-0.3c0.5,0.7,1.3,1,0.6,1.2
		c-0.8,0.2-2.2,0.9-1.3,1.5c0.8,0.6,2.3,0.4,3,0.6c0.7,0.2,2.8,0.6,1.8,0.9c-1,0.3-2.8,0.2-2.8,0.8c0,0.7,0.8,1.3,0.2,1.6
		c-0.7,0.4-0.4,1.2-1.1,1.1c-0.7-0.1-4.1-1-3.5-0.3c0.5,0.7,1.4,2.4,1.8,2.5c0.4,0.1-0.8,1-1.4,1.9c-0.7,0.9,0.2,1.8,0.8,1.1
		c0.6-0.6,1.9-1.1,3.3-0.8c1.3,0.3,3.8,1.3,4.2,1.3c0.4,0,1.2,0.2,0.9,0.6c-0.4,0.4-0.3,0.7-1.9,0.3c-1.5-0.4-2.4-0.4-3.2-0.2
		c-0.8,0.2-1.7,1.4-2.6,1.1c-0.8-0.3-1.8-0.2-2.4-0.7c-0.6-0.5-1.6-0.7-1.6-0.7s-1.4-1.1-1.7-1.3c-0.3-0.2-0.3,0.1-0.4,0.3
		c-0.1,0.2,0.3,1,0.3,1s-2.1-0.1-2.1,0.1s0.9,1.1,1.1,1.1c0.2,0-0.8,0.5,0.6,0.6c1.4,0.1,3.9,0.5,2.7,0.7c-1.1,0.3-2,0.5-1.6,0.9
		c0.4,0.4,1.1,1.4,1.9,1.1c0.8-0.3,1.6-1.1,2.3-0.7c0,0-0.5,0.5,0.5,1c1.1,0.6,1.8,0.4,2.5,0.9c0.7,0.5-0.1,1.1-0.8,1.4
		c-0.7,0.3-0.1,1.9-1.2,1.4c-1.1-0.5-1.9-1.4-1.8-1.1c0.1,0.3,1.5,1.2,0.4,1c-1.1-0.2-2.1-2.1-1.8-1.3c0.3,0.9,0.7,2.1,0.2,1.6
		c-0.5-0.5-0.2,1-1.1,0.7c-0.8-0.3-1.9-1.4-3-2.2c-1.1-0.7-0.9-0.2-0.8,0.2c0.1,0.4,1.5,2.2,0.7,1.7c-0.8-0.5-2-1.1-1.7-0.5
		c0.3,0.6,0.4,1,0,1.3s-0.1,1.2,0.6,1.4c0.7,0.1,2.3,0.2,3.1,0.3c0.8,0.1,2.3,0.2,1.9,0.8c-0.4,0.5-0.8,1.2-1.5,1.4
		c-0.8,0.2-1.3,0.7-0.9,1.2c0.4,0.5,1.2,1.2,0.6,1.5c-0.5,0.3-1.5,0.7-2.2,0.2c-0.6-0.5-3.2-2.2-2.9-1.7c0.3,0.5-1.2-0.7-1.2-0.3
		c0.1,0.4,1.2,2,0.6,1.8c-0.5-0.2-1.1,0.8-1.3,0.7c-0.2-0.1,0.2,1.2,0.5,1.4c0.2,0.2,0.8,1.1,1.1,1c0.3-0.1,1.1-0.4,1.5-0.2
		s0.8,0.6,0.1,1.1c-0.7,0.5-1.1,0.9-0.5,1.1c0.5,0.2,0.7,0.7,1.1,0.8c0.4,0.1,1.2-0.9,1.1,0.1c-0.1,1-0.1,1.2-1,1.3
		c-0.8,0.1-1.6,0.3-2.2,0.2c-0.5-0.1-0.5,1-1.2,0.9c-0.7-0.1-0.3,0.6-0.5,1.1c-0.2,0.5-0.5,1.6-1.1,1.3c-0.5-0.3-0.4-0.3-1.4-0.4
		c-1-0.1-0.9,0.8-1.8,0.5c-0.8-0.3-0.1,0.5-0.7,0.7c-0.6,0.2-2.3,1.1-1.4,1.5c0.9,0.4,2.6-0.4,3.2,0.3c0.5,0.7,1.1,2.1,1.5,2.3
		s1.8-1.1,2.2-1.1c0.4,0,1.5-0.3,2.3,0.2c0.8,0.6,2.3,0.8,1.2,1.5c-1.1,0.7-3.2,1-3.4,1.9c-0.2,0.9-0.2,1.4-0.1,1.7
		c0.1,0.2,0.1,0.3-0.7,0.7h29.9h104.5c-1.8-1.5-1.8-2.1-7.6-2.2c-7.3-0.1-6.5,2-10.7,0.8c-4.2-1.1-7,0.8-8.1,0.6
		c-1.1-0.2,0.1-2.3-3.2-3.3c-3.3-1-6.2-0.7-5.2-1.9c0.9-1.2,0-1.5,4.5,0.2c4.6,1.7,12.4,2.3,10.4,1c-2-1.3-1.1-1.6-2.2-2.8
		c-1.1-1.1,4.4-1,4-1.7c-0.4-0.7,6.9,0.4,5.3-0.9c-1.6-1.2,1.8-1.1,5.9-0.7c4.1,0.4,8.4,2.6,7.8,1
		C751.6,888.6,759.6,892.3,753.8,889z"/>
	<path d="M594.7,880.8c-3.3,0.2-1.3-2.9-3.2-2c-1.9,0.9-3.8-0.7-4.9,0.8c-1.1,1.4-3.1,4.5-3.3,2.8c-0.2-1.7-2-3.3-3.6-3.3
		c-1.6,0-4-1.7-1.6-1.9c2.3-0.2,4.6,2,4.7,0c0.1-2,0.8-1.9-1.2-2.6c-2-0.7-0.6-1.5-2.7-1.6c-2-0.1,0.4-2.3-1.1-2.4
		c-1.5-0.1,1.8-1,2.4-2.2c0.6-1.1,1.5-3.1-0.4-2.3c-1.9,0.8-4-1-4.3,0.6c-0.3,1.5-0.4,1.6-2.2,3.4c-1.8,1.8-4.5,0.7-5.1,0.6
		c-0.5-0.1-1.3-0.2-1.6-0.8c-0.5-1.2-2-2.1-0.5-2.9c2.3-1.2,6.8-0.6,6.2-0.9c-0.5-0.2-2.9,0-2-0.7c0.9-0.7,2.4,0,2.4-0.7
		c0-0.7-1-0.4-0.8-0.6c0.2-0.3,2.6-1.1,2.5-1.2c-0.1-0.2-2.1-0.4-1.9-0.7c0.2-0.3,3.2-0.8,3.2-1.5c0-0.7-1.5-0.8-1.9-1
		c-0.4-0.2-1.6-1-2.3-0.8c-0.7,0.2,0.3-0.9-0.8-0.9c-1.1,0-3,0.7-3.4,0.3c-0.5-0.4-2.1-0.9-0.8-2.1c1.3-1.2,4.3-2.9,3.5-3.2
		c-0.7-0.3-2.8,1.6-3.1,0.9c-0.4-0.6,0-2.3-0.8-2.1c-0.8,0.2-0.6,2-0.8,1.9c-0.3-0.1-1.4-0.7-1.5-0.3c-0.1,0.4,0.1,2.3-0.4,2.3
		c-0.6,0-1.4,0.3-1,0.8c0.4,0.5,0.2,1.6,0.3,2.2c0.1,0.6,0.4,1.1-0.1,1c-0.6-0.1-1.7-1.5-2.9-1.5c-1.3-0.1-1.4,1-2.1,1.6
		c-0.6,0.6-2.6-1.2-3-0.8c-0.4,0.4,1.4,3,1.4,3.5c0,0.4-3.3,0.4-2.6,0.9c0.6,0.5,3.5,3.8,4.2,4.3c0.7,0.5,2.1,4.3,1.8,4.2
		c-0.4-0.1-1.4,0-2.6,0c-1.2,0-3.7,0-4.9-0.4c-1.2-0.4-1,0.9-0.8,1.3c0.2,0.3,2.5,1.4,1.3,1.4c-1.2,0-1.7-1.4-3.1-1.5
		c-1.4-0.1-3.8-0.1-2.5,0.2c1.3,0.4,5.4,2,3.5,1.9c-1.8-0.1-5.4-1.1-4.6-0.2c0.8,0.9,2.1,1.6,0.8,2c-1.4,0.4-4.2,1.4-2.7,2.1
		c1.5,0.7,4.1,0.5,5.3,0.7c1.2,0.2,5-0.2,3.2,0.3c-1.8,0.5-5.5,0.9-5.5,1.7c0,0.9,1.8,1.3,0.6,1.9c-1.2,0.6-0.4,1.8-1.6,1.8
		c-1.3,0-7.4-0.6-6.5,0.3c0.9,0.9,2.7,2.9,3.3,3c0.6,0.1-1.9,1.2-3,2.5c-1.1,1.3,0.6,2.4,1.6,1.5c1.1-0.9,3.7-1,6-0.8
		c2.3,0.2,6.7,1.1,7.4,1.1c0.7,0,2.1-0.4,1.5,0.2c-0.6,0.6-0.6,1.5-3.3,1.1c-2.7-0.4-4.1-0.9-5.5-0.5c-1.4,0.4-2.9,2.4-4.3,2.1
		c-1.4-0.3-3.5,0.3-4.6-0.4c-1.1-0.6-0.8-0.9-2.2-1.4c-1.7-0.5-2.2-1.4-2.8-1.6c-0.5-0.2-1.7,0.5-1.7,0.8c-0.1,0.3,2.3,1.4,1.5,1.8
		c-1.6,0.6-4.1-0.2-4,0.1c0.1,0.2,1.8,1,2.1,1c0.3,0-1.4,0.9,1,0.8c2.4,0,6.6,0.2,4.7,0.7c-1.9,0.5-3,0.7-2.3,1.2
		c0.7,0.4,1.4,2,2.8,1.4c1.3-0.6,3.2-1.7,4.4-1.2c0.1,0.7-1.2,1.1-0.4,1.6h54.2c0.2-0.2,0.3-0.4,0.2-0.6c-0.6-1.4-2.1-3.9-3.5-3.4
		c-1.4,0.5-1.1-1.5-2.3-1.1c-1.2,0.4-1.6,0.5-4.6,0.1c-3.1-0.4-0.8-2-3.7-2c-2.9,0-4.1,0.3-3.7-1.2c0.4-1.5,2.8-0.1,4.5-1.1
		c1.8-1,5.6-0.3,5.6-0.7c0-0.4,3.6,1,5.1-0.3c1.5-1.3-2.9-1.6-1.4-2.8c1.5-1.2,3.5-0.5,3.1-2.7C594.4,881.8,598,880.6,594.7,880.8z"
		/>
</g>
</svg>
